<svg width="257" height="316" viewBox="0 0 257 316" fill="none" xmlns="http://www.w3.org/2000/svg">
<rect width="257" height="96" rx="10" fill="white" fill-opacity="0.4"/>
<path d="M114.382 26.168C113.598 26.168 112.847 26.0653 112.128 25.86C111.409 25.6453 110.831 25.37 110.392 25.034L111.162 23.326C111.582 23.6247 112.077 23.872 112.646 24.068C113.225 24.2547 113.808 24.348 114.396 24.348C114.844 24.348 115.203 24.306 115.474 24.222C115.754 24.1287 115.959 24.0027 116.09 23.844C116.221 23.6853 116.286 23.5033 116.286 23.298C116.286 23.0367 116.183 22.8313 115.978 22.682C115.773 22.5233 115.502 22.3973 115.166 22.304C114.83 22.2013 114.457 22.108 114.046 22.024C113.645 21.9307 113.239 21.8187 112.828 21.688C112.427 21.5573 112.058 21.3893 111.722 21.184C111.386 20.9787 111.111 20.708 110.896 20.372C110.691 20.036 110.588 19.6067 110.588 19.084C110.588 18.524 110.737 18.0153 111.036 17.558C111.344 17.0913 111.801 16.7227 112.408 16.452C113.024 16.172 113.794 16.032 114.718 16.032C115.334 16.032 115.941 16.1067 116.538 16.256C117.135 16.396 117.663 16.6107 118.12 16.9L117.42 18.622C116.963 18.3607 116.505 18.1693 116.048 18.048C115.591 17.9173 115.143 17.852 114.704 17.852C114.265 17.852 113.906 17.9033 113.626 18.006C113.346 18.1087 113.145 18.244 113.024 18.412C112.903 18.5707 112.842 18.7573 112.842 18.972C112.842 19.224 112.945 19.4293 113.15 19.588C113.355 19.7373 113.626 19.8587 113.962 19.952C114.298 20.0453 114.667 20.1387 115.068 20.232C115.479 20.3253 115.885 20.4327 116.286 20.554C116.697 20.6753 117.07 20.8387 117.406 21.044C117.742 21.2493 118.013 21.52 118.218 21.856C118.433 22.192 118.54 22.6167 118.54 23.13C118.54 23.6807 118.386 24.1847 118.078 24.642C117.77 25.0993 117.308 25.468 116.692 25.748C116.085 26.028 115.315 26.168 114.382 26.168ZM122.176 20.148H126.894V21.912H122.176V20.148ZM122.344 24.18H127.678V26H120.09V16.2H127.496V18.02H122.344V24.18ZM131.512 26V18.048H128.376V16.2H136.916V18.048H133.78V26H131.512ZM141.288 26.168C140.504 26.168 139.753 26.0653 139.034 25.86C138.316 25.6453 137.737 25.37 137.298 25.034L138.068 23.326C138.488 23.6247 138.983 23.872 139.552 24.068C140.131 24.2547 140.714 24.348 141.302 24.348C141.75 24.348 142.11 24.306 142.38 24.222C142.66 24.1287 142.866 24.0027 142.996 23.844C143.127 23.6853 143.192 23.5033 143.192 23.298C143.192 23.0367 143.09 22.8313 142.884 22.682C142.679 22.5233 142.408 22.3973 142.072 22.304C141.736 22.2013 141.363 22.108 140.952 22.024C140.551 21.9307 140.145 21.8187 139.734 21.688C139.333 21.5573 138.964 21.3893 138.628 21.184C138.292 20.9787 138.017 20.708 137.802 20.372C137.597 20.036 137.494 19.6067 137.494 19.084C137.494 18.524 137.644 18.0153 137.942 17.558C138.25 17.0913 138.708 16.7227 139.314 16.452C139.93 16.172 140.7 16.032 141.624 16.032C142.24 16.032 142.847 16.1067 143.444 16.256C144.042 16.396 144.569 16.6107 145.026 16.9L144.326 18.622C143.869 18.3607 143.412 18.1693 142.954 18.048C142.497 17.9173 142.049 17.852 141.61 17.852C141.172 17.852 140.812 17.9033 140.532 18.006C140.252 18.1087 140.052 18.244 139.93 18.412C139.809 18.5707 139.748 18.7573 139.748 18.972C139.748 19.224 139.851 19.4293 140.056 19.588C140.262 19.7373 140.532 19.8587 140.868 19.952C141.204 20.0453 141.573 20.1387 141.974 20.232C142.385 20.3253 142.791 20.4327 143.192 20.554C143.603 20.6753 143.976 20.8387 144.312 21.044C144.648 21.2493 144.919 21.52 145.124 21.856C145.339 22.192 145.446 22.6167 145.446 23.13C145.446 23.6807 145.292 24.1847 144.984 24.642C144.676 25.0993 144.214 25.468 143.598 25.748C142.992 26.028 142.222 26.168 141.288 26.168Z" fill="#336CFF"/>
<circle cx="216" cy="59" r="22" fill="#E9EFFF"/>
<path d="M226 60.4286H217.429V69H214.571V60.4286H206V57.5714H214.571V49H217.429V57.5714H226V60.4286Z" fill="#336CFF"/>
<circle cx="42" cy="59" r="22" fill="#E9EFFF"/>
<rect x="32" y="58" width="20" height="2.7" fill="#336CFF"/>
<path d="M126.925 69.3C125.708 69.3 124.5 69.1417 123.3 68.825C122.117 68.4917 121.1 68.025 120.25 67.425L121.85 64.325C122.517 64.8083 123.283 65.1917 124.15 65.475C125.033 65.7583 125.925 65.9 126.825 65.9C127.842 65.9 128.642 65.7 129.225 65.3C129.808 64.9 130.1 64.3417 130.1 63.625C130.1 63.175 129.983 62.775 129.75 62.425C129.517 62.075 129.1 61.8083 128.5 61.625C127.917 61.4417 127.092 61.35 126.025 61.35H121.55L122.45 51.5H133.125V54.75H123.9L126 52.9L125.375 59.925L123.275 58.075H126.975C128.708 58.075 130.1 58.3167 131.15 58.8C132.217 59.2667 132.992 59.9083 133.475 60.725C133.958 61.5417 134.2 62.4667 134.2 63.5C134.2 64.5333 133.942 65.4917 133.425 66.375C132.908 67.2417 132.108 67.95 131.025 68.5C129.958 69.0333 128.592 69.3 126.925 69.3Z" fill="#F8FAFF"/>
<rect y="220" width="257" height="96" rx="10" fill="white" fill-opacity="0.4"/>
<path d="M71.162 247V237.2H75.404C76.2813 237.2 77.0373 237.345 77.672 237.634C78.3067 237.914 78.7967 238.32 79.142 238.852C79.4873 239.384 79.66 240.019 79.66 240.756C79.66 241.484 79.4873 242.114 79.142 242.646C78.7967 243.169 78.3067 243.57 77.672 243.85C77.0373 244.13 76.2813 244.27 75.404 244.27H72.422L73.43 243.276V247H71.162ZM77.392 247L74.942 243.444H77.364L79.842 247H77.392ZM73.43 243.528L72.422 242.464H75.278C75.978 242.464 76.5007 242.315 76.846 242.016C77.1913 241.708 77.364 241.288 77.364 240.756C77.364 240.215 77.1913 239.795 76.846 239.496C76.5007 239.197 75.978 239.048 75.278 239.048H72.422L73.43 237.97V243.528ZM83.5429 241.148H88.2609V242.912H83.5429V241.148ZM83.7109 245.18H89.0449V247H81.4569V237.2H88.8629V239.02H83.7109V245.18ZM94.0695 247.168C93.2855 247.168 92.5342 247.065 91.8155 246.86C91.0968 246.645 90.5182 246.37 90.0795 246.034L90.8495 244.326C91.2695 244.625 91.7642 244.872 92.3335 245.068C92.9122 245.255 93.4955 245.348 94.0835 245.348C94.5315 245.348 94.8908 245.306 95.1615 245.222C95.4415 245.129 95.6468 245.003 95.7775 244.844C95.9082 244.685 95.9735 244.503 95.9735 244.298C95.9735 244.037 95.8708 243.831 95.6655 243.682C95.4602 243.523 95.1895 243.397 94.8535 243.304C94.5175 243.201 94.1442 243.108 93.7335 243.024C93.3322 242.931 92.9262 242.819 92.5155 242.688C92.1142 242.557 91.7455 242.389 91.4095 242.184C91.0735 241.979 90.7982 241.708 90.5835 241.372C90.3782 241.036 90.2755 240.607 90.2755 240.084C90.2755 239.524 90.4248 239.015 90.7235 238.558C91.0315 238.091 91.4888 237.723 92.0955 237.452C92.7115 237.172 93.4815 237.032 94.4055 237.032C95.0215 237.032 95.6282 237.107 96.2255 237.256C96.8228 237.396 97.3502 237.611 97.8075 237.9L97.1075 239.622C96.6502 239.361 96.1928 239.169 95.7355 239.048C95.2782 238.917 94.8302 238.852 94.3915 238.852C93.9528 238.852 93.5935 238.903 93.3135 239.006C93.0335 239.109 92.8328 239.244 92.7115 239.412C92.5902 239.571 92.5295 239.757 92.5295 239.972C92.5295 240.224 92.6322 240.429 92.8375 240.588C93.0428 240.737 93.3135 240.859 93.6495 240.952C93.9855 241.045 94.3542 241.139 94.7555 241.232C95.1662 241.325 95.5722 241.433 95.9735 241.554C96.3842 241.675 96.7575 241.839 97.0935 242.044C97.4295 242.249 97.7002 242.52 97.9055 242.856C98.1202 243.192 98.2275 243.617 98.2275 244.13C98.2275 244.681 98.0735 245.185 97.7655 245.642C97.4575 246.099 96.9955 246.468 96.3795 246.748C95.7728 247.028 95.0028 247.168 94.0695 247.168ZM101.671 247V239.048H98.5345V237.2H107.075V239.048H103.939V247H101.671ZM112.26 247V237.2H114.528V247H112.26ZM116.853 247V237.2H118.729L124.511 244.256H123.601V237.2H125.841V247H123.979L118.183 239.944H119.093V247H116.853ZM130.19 247V239.048H127.054V237.2H135.594V239.048H132.458V247H130.19ZM138.9 241.148H143.618V242.912H138.9V241.148ZM139.068 245.18H144.402V247H136.814V237.2H144.22V239.02H139.068V245.18ZM146.207 247V237.2H150.449C151.326 237.2 152.082 237.345 152.717 237.634C153.352 237.914 153.842 238.32 154.187 238.852C154.532 239.384 154.705 240.019 154.705 240.756C154.705 241.484 154.532 242.114 154.187 242.646C153.842 243.169 153.352 243.57 152.717 243.85C152.082 244.13 151.326 244.27 150.449 244.27H147.467L148.475 243.276V247H146.207ZM152.437 247L149.987 243.444H152.409L154.887 247H152.437ZM148.475 243.528L147.467 242.464H150.323C151.023 242.464 151.546 242.315 151.891 242.016C152.236 241.708 152.409 241.288 152.409 240.756C152.409 240.215 152.236 239.795 151.891 239.496C151.546 239.197 151.023 239.048 150.323 239.048H147.467L148.475 237.97V243.528ZM159.442 247L155.214 237.2H157.664L161.36 245.88H159.918L163.67 237.2H165.924L161.682 247H159.442ZM165.126 247L169.494 237.2H171.734L176.116 247H173.736L170.152 238.348H171.048L167.45 247H165.126ZM167.31 244.9L167.912 243.178H172.952L173.568 244.9H167.31ZM177.133 247V237.2H179.401V245.152H184.315V247H177.133Z" fill="#336CFF"/>
<circle cx="216" cy="279" r="22" fill="#E9EFFF"/>
<path d="M226 280.429H217.429V289H214.571V280.429H206V277.571H214.571V269H217.429V277.571H226V280.429Z" fill="#336CFF"/>
<circle cx="42" cy="279" r="22" fill="#E9EFFF"/>
<rect x="32" y="278" width="20" height="2.7" fill="#336CFF"/>
<rect y="110" width="257" height="96" rx="10" fill="white" fill-opacity="0.4"/>
<path d="M67.514 136L64.308 126.2H66.66L69.446 134.88H68.27L71.182 126.2H73.282L76.082 134.88H74.948L77.804 126.2H79.974L76.768 136H74.332L71.854 128.384H72.498L69.95 136H67.514ZM85.8908 136.168C85.1161 136.168 84.3974 136.042 83.7348 135.79C83.0814 135.538 82.5121 135.183 82.0267 134.726C81.5508 134.269 81.1774 133.732 80.9068 133.116C80.6454 132.5 80.5148 131.828 80.5148 131.1C80.5148 130.372 80.6454 129.7 80.9068 129.084C81.1774 128.468 81.5554 127.931 82.0408 127.474C82.5261 127.017 83.0954 126.662 83.7488 126.41C84.4021 126.158 85.1114 126.032 85.8768 126.032C86.6514 126.032 87.3607 126.158 88.0048 126.41C88.6581 126.662 89.2228 127.017 89.6988 127.474C90.1841 127.931 90.5621 128.468 90.8328 129.084C91.1034 129.691 91.2388 130.363 91.2388 131.1C91.2388 131.828 91.1034 132.505 90.8328 133.13C90.5621 133.746 90.1841 134.283 89.6988 134.74C89.2228 135.188 88.6581 135.538 88.0048 135.79C87.3607 136.042 86.6561 136.168 85.8908 136.168ZM85.8768 134.236C86.3154 134.236 86.7168 134.161 87.0808 134.012C87.4541 133.863 87.7808 133.648 88.0608 133.368C88.3408 133.088 88.5554 132.757 88.7048 132.374C88.8634 131.991 88.9428 131.567 88.9428 131.1C88.9428 130.633 88.8634 130.209 88.7048 129.826C88.5554 129.443 88.3408 129.112 88.0608 128.832C87.7901 128.552 87.4681 128.337 87.0948 128.188C86.7214 128.039 86.3154 127.964 85.8768 127.964C85.4381 127.964 85.0321 128.039 84.6588 128.188C84.2948 128.337 83.9728 128.552 83.6928 128.832C83.4128 129.112 83.1934 129.443 83.0348 129.826C82.8854 130.209 82.8108 130.633 82.8108 131.1C82.8108 131.557 82.8854 131.982 83.0348 132.374C83.1934 132.757 83.4081 133.088 83.6788 133.368C83.9588 133.648 84.2854 133.863 84.6588 134.012C85.0321 134.161 85.4381 134.236 85.8768 134.236ZM92.9433 136V126.2H97.1853C98.0626 126.2 98.8186 126.345 99.4533 126.634C100.088 126.914 100.578 127.32 100.923 127.852C101.269 128.384 101.441 129.019 101.441 129.756C101.441 130.484 101.269 131.114 100.923 131.646C100.578 132.169 100.088 132.57 99.4533 132.85C98.8186 133.13 98.0626 133.27 97.1853 133.27H94.2033L95.2113 132.276V136H92.9433ZM99.1732 136L96.7233 132.444H99.1453L101.623 136H99.1732ZM95.2113 132.528L94.2033 131.464H97.0593C97.7593 131.464 98.2819 131.315 98.6273 131.016C98.9726 130.708 99.1453 130.288 99.1453 129.756C99.1453 129.215 98.9726 128.795 98.6273 128.496C98.2819 128.197 97.7593 128.048 97.0593 128.048H94.2033L95.2113 126.97V132.528ZM105.268 133.76L105.142 131.142L109.832 126.2H112.352L108.124 130.75L106.864 132.094L105.268 133.76ZM103.238 136V126.2H105.492V136H103.238ZM109.944 136L106.458 131.73L107.942 130.12L112.59 136H109.944ZM117.566 136V126.2H119.834V136H117.566ZM122.16 136V126.2H124.036L129.818 133.256H128.908V126.2H131.148V136H129.286L123.49 128.944H124.4V136H122.16ZM135.497 136V128.048H132.361V126.2H140.901V128.048H137.765V136H135.497ZM144.207 130.148H148.925V131.912H144.207V130.148ZM144.375 134.18H149.709V136H142.121V126.2H149.527V128.02H144.375V134.18ZM151.514 136V126.2H155.756C156.633 126.2 157.389 126.345 158.024 126.634C158.658 126.914 159.148 127.32 159.494 127.852C159.839 128.384 160.012 129.019 160.012 129.756C160.012 130.484 159.839 131.114 159.494 131.646C159.148 132.169 158.658 132.57 158.024 132.85C157.389 133.13 156.633 133.27 155.756 133.27H152.774L153.782 132.276V136H151.514ZM157.744 136L155.294 132.444H157.716L160.194 136H157.744ZM153.782 132.528L152.774 131.464H155.63C156.33 131.464 156.852 131.315 157.198 131.016C157.543 130.708 157.716 130.288 157.716 129.756C157.716 129.215 157.543 128.795 157.198 128.496C156.852 128.197 156.33 128.048 155.63 128.048H152.774L153.782 126.97V132.528ZM164.748 136L160.52 126.2H162.97L166.666 134.88H165.224L168.976 126.2H171.23L166.988 136H164.748ZM170.433 136L174.801 126.2H177.041L181.423 136H179.043L175.459 127.348H176.355L172.757 136H170.433ZM172.617 133.9L173.219 132.178H178.259L178.875 133.9H172.617ZM182.439 136V126.2H184.707V134.152H189.621V136H182.439Z" fill="#336CFF"/>
<circle cx="216" cy="168" r="22" fill="#E9EFFF"/>
<path d="M226 169.429H217.429V178H214.571V169.429H206V166.571H214.571V158H217.429V166.571H226V169.429Z" fill="#336CFF"/>
<circle cx="42" cy="168" r="22" fill="#E9EFFF"/>
<rect x="32" y="167" width="20" height="2.7" fill="#336CFF"/>
<path d="M103.475 179.3C102.042 179.3 100.758 178.95 99.625 178.25C98.4917 177.533 97.6 176.5 96.95 175.15C96.3 173.8 95.975 172.167 95.975 170.25C95.975 168.333 96.3 166.7 96.95 165.35C97.6 164 98.4917 162.975 99.625 162.275C100.758 161.558 102.042 161.2 103.475 161.2C104.925 161.2 106.208 161.558 107.325 162.275C108.458 162.975 109.35 164 110 165.35C110.65 166.7 110.975 168.333 110.975 170.25C110.975 172.167 110.65 173.8 110 175.15C109.35 176.5 108.458 177.533 107.325 178.25C106.208 178.95 104.925 179.3 103.475 179.3ZM103.475 175.875C104.158 175.875 104.75 175.683 105.25 175.3C105.767 174.917 106.167 174.308 106.45 173.475C106.75 172.642 106.9 171.567 106.9 170.25C106.9 168.933 106.75 167.858 106.45 167.025C106.167 166.192 105.767 165.583 105.25 165.2C104.75 164.817 104.158 164.625 103.475 164.625C102.808 164.625 102.217 164.817 101.7 165.2C101.2 165.583 100.8 166.192 100.5 167.025C100.217 167.858 100.075 168.933 100.075 170.25C100.075 171.567 100.217 172.642 100.5 173.475C100.8 174.308 101.2 174.917 101.7 175.3C102.217 175.683 102.808 175.875 103.475 175.875ZM120.443 179.3C119.009 179.3 117.726 178.95 116.593 178.25C115.459 177.533 114.568 176.5 113.918 175.15C113.268 173.8 112.943 172.167 112.943 170.25C112.943 168.333 113.268 166.7 113.918 165.35C114.568 164 115.459 162.975 116.593 162.275C117.726 161.558 119.009 161.2 120.443 161.2C121.893 161.2 123.176 161.558 124.293 162.275C125.426 162.975 126.318 164 126.968 165.35C127.618 166.7 127.943 168.333 127.943 170.25C127.943 172.167 127.618 173.8 126.968 175.15C126.318 176.5 125.426 177.533 124.293 178.25C123.176 178.95 121.893 179.3 120.443 179.3ZM120.443 175.875C121.126 175.875 121.718 175.683 122.218 175.3C122.734 174.917 123.134 174.308 123.418 173.475C123.718 172.642 123.868 171.567 123.868 170.25C123.868 168.933 123.718 167.858 123.418 167.025C123.134 166.192 122.734 165.583 122.218 165.2C121.718 164.817 121.126 164.625 120.443 164.625C119.776 164.625 119.184 164.817 118.668 165.2C118.168 165.583 117.768 166.192 117.468 167.025C117.184 167.858 117.043 168.933 117.043 170.25C117.043 171.567 117.184 172.642 117.468 173.475C117.768 174.308 118.168 174.917 118.668 175.3C119.184 175.683 119.776 175.875 120.443 175.875ZM132.211 170.225C131.544 170.225 130.969 170 130.486 169.55C130.019 169.083 129.786 168.492 129.786 167.775C129.786 167.058 130.019 166.483 130.486 166.05C130.969 165.6 131.544 165.375 132.211 165.375C132.894 165.375 133.469 165.6 133.936 166.05C134.402 166.483 134.636 167.058 134.636 167.775C134.636 168.492 134.402 169.083 133.936 169.55C133.469 170 132.894 170.225 132.211 170.225ZM132.211 179.2C131.544 179.2 130.969 178.975 130.486 178.525C130.019 178.058 129.786 177.467 129.786 176.75C129.786 176.033 130.019 175.458 130.486 175.025C130.969 174.575 131.544 174.35 132.211 174.35C132.894 174.35 133.469 174.575 133.936 175.025C134.402 175.458 134.636 176.033 134.636 176.75C134.636 177.467 134.402 178.058 133.936 178.525C133.469 178.975 132.894 179.2 132.211 179.2ZM139.154 179V163L140.904 164.75H135.654V161.5H143.204V179H139.154ZM152.194 179.3C150.977 179.3 149.769 179.142 148.569 178.825C147.385 178.492 146.369 178.025 145.519 177.425L147.119 174.325C147.785 174.808 148.552 175.192 149.419 175.475C150.302 175.758 151.194 175.9 152.094 175.9C153.11 175.9 153.91 175.7 154.494 175.3C155.077 174.9 155.369 174.342 155.369 173.625C155.369 173.175 155.252 172.775 155.019 172.425C154.785 172.075 154.369 171.808 153.769 171.625C153.185 171.442 152.36 171.35 151.294 171.35H146.819L147.719 161.5H158.394V164.75H149.169L151.269 162.9L150.644 169.925L148.544 168.075H152.244C153.977 168.075 155.369 168.317 156.419 168.8C157.485 169.267 158.26 169.908 158.744 170.725C159.227 171.542 159.469 172.467 159.469 173.5C159.469 174.533 159.21 175.492 158.694 176.375C158.177 177.242 157.377 177.95 156.294 178.5C155.227 179.033 153.86 179.3 152.194 179.3Z" fill="#F5F5F5"/>
<path d="M99.475 288.3C98.0417 288.3 96.7583 287.95 95.625 287.25C94.4917 286.533 93.6 285.5 92.95 284.15C92.3 282.8 91.975 281.167 91.975 279.25C91.975 277.333 92.3 275.7 92.95 274.35C93.6 273 94.4917 271.975 95.625 271.275C96.7583 270.558 98.0417 270.2 99.475 270.2C100.925 270.2 102.208 270.558 103.325 271.275C104.458 271.975 105.35 273 106 274.35C106.65 275.7 106.975 277.333 106.975 279.25C106.975 281.167 106.65 282.8 106 284.15C105.35 285.5 104.458 286.533 103.325 287.25C102.208 287.95 100.925 288.3 99.475 288.3ZM99.475 284.875C100.158 284.875 100.75 284.683 101.25 284.3C101.767 283.917 102.167 283.308 102.45 282.475C102.75 281.642 102.9 280.567 102.9 279.25C102.9 277.933 102.75 276.858 102.45 276.025C102.167 275.192 101.767 274.583 101.25 274.2C100.75 273.817 100.158 273.625 99.475 273.625C98.8083 273.625 98.2167 273.817 97.7 274.2C97.2 274.583 96.8 275.192 96.5 276.025C96.2167 276.858 96.075 277.933 96.075 279.25C96.075 280.567 96.2167 281.642 96.5 282.475C96.8 283.308 97.2 283.917 97.7 284.3C98.2167 284.683 98.8083 284.875 99.475 284.875ZM116.443 288.3C115.009 288.3 113.726 287.95 112.593 287.25C111.459 286.533 110.568 285.5 109.918 284.15C109.268 282.8 108.943 281.167 108.943 279.25C108.943 277.333 109.268 275.7 109.918 274.35C110.568 273 111.459 271.975 112.593 271.275C113.726 270.558 115.009 270.2 116.443 270.2C117.893 270.2 119.176 270.558 120.293 271.275C121.426 271.975 122.318 273 122.968 274.35C123.618 275.7 123.943 277.333 123.943 279.25C123.943 281.167 123.618 282.8 122.968 284.15C122.318 285.5 121.426 286.533 120.293 287.25C119.176 287.95 117.893 288.3 116.443 288.3ZM116.443 284.875C117.126 284.875 117.718 284.683 118.218 284.3C118.734 283.917 119.134 283.308 119.418 282.475C119.718 281.642 119.868 280.567 119.868 279.25C119.868 277.933 119.718 276.858 119.418 276.025C119.134 275.192 118.734 274.583 118.218 274.2C117.718 273.817 117.126 273.625 116.443 273.625C115.776 273.625 115.184 273.817 114.668 274.2C114.168 274.583 113.768 275.192 113.468 276.025C113.184 276.858 113.043 277.933 113.043 279.25C113.043 280.567 113.184 281.642 113.468 282.475C113.768 283.308 114.168 283.917 114.668 284.3C115.184 284.683 115.776 284.875 116.443 284.875ZM128.211 279.225C127.544 279.225 126.969 279 126.486 278.55C126.019 278.083 125.786 277.492 125.786 276.775C125.786 276.058 126.019 275.483 126.486 275.05C126.969 274.6 127.544 274.375 128.211 274.375C128.894 274.375 129.469 274.6 129.936 275.05C130.402 275.483 130.636 276.058 130.636 276.775C130.636 277.492 130.402 278.083 129.936 278.55C129.469 279 128.894 279.225 128.211 279.225ZM128.211 288.2C127.544 288.2 126.969 287.975 126.486 287.525C126.019 287.058 125.786 286.467 125.786 285.75C125.786 285.033 126.019 284.458 126.486 284.025C126.969 283.575 127.544 283.35 128.211 283.35C128.894 283.35 129.469 283.575 129.936 284.025C130.402 284.458 130.636 285.033 130.636 285.75C130.636 286.467 130.402 287.058 129.936 287.525C129.469 287.975 128.894 288.2 128.211 288.2ZM138.129 288.3C136.912 288.3 135.704 288.142 134.504 287.825C133.304 287.492 132.287 287.025 131.454 286.425L133.029 283.325C133.695 283.808 134.47 284.192 135.354 284.475C136.237 284.758 137.129 284.9 138.029 284.9C139.045 284.9 139.845 284.7 140.429 284.3C141.012 283.9 141.304 283.35 141.304 282.65C141.304 281.983 141.045 281.458 140.529 281.075C140.012 280.692 139.179 280.5 138.029 280.5H136.179V277.825L141.054 272.3L141.504 273.75H132.329V270.5H144.579V273.125L139.729 278.65L137.679 277.475H138.854C141.004 277.475 142.629 277.958 143.729 278.925C144.829 279.892 145.379 281.133 145.379 282.65C145.379 283.633 145.12 284.558 144.604 285.425C144.087 286.275 143.295 286.967 142.229 287.5C141.162 288.033 139.795 288.3 138.129 288.3ZM154.748 288.3C153.315 288.3 152.032 287.95 150.898 287.25C149.765 286.533 148.873 285.5 148.223 284.15C147.573 282.8 147.248 281.167 147.248 279.25C147.248 277.333 147.573 275.7 148.223 274.35C148.873 273 149.765 271.975 150.898 271.275C152.032 270.558 153.315 270.2 154.748 270.2C156.198 270.2 157.482 270.558 158.598 271.275C159.732 271.975 160.623 273 161.273 274.35C161.923 275.7 162.248 277.333 162.248 279.25C162.248 281.167 161.923 282.8 161.273 284.15C160.623 285.5 159.732 286.533 158.598 287.25C157.482 287.95 156.198 288.3 154.748 288.3ZM154.748 284.875C155.432 284.875 156.023 284.683 156.523 284.3C157.04 283.917 157.44 283.308 157.723 282.475C158.023 281.642 158.173 280.567 158.173 279.25C158.173 277.933 158.023 276.858 157.723 276.025C157.44 275.192 157.04 274.583 156.523 274.2C156.023 273.817 155.432 273.625 154.748 273.625C154.082 273.625 153.49 273.817 152.973 274.2C152.473 274.583 152.073 275.192 151.773 276.025C151.49 276.858 151.348 277.933 151.348 279.25C151.348 280.567 151.49 281.642 151.773 282.475C152.073 283.308 152.473 283.917 152.973 284.3C153.49 284.683 154.082 284.875 154.748 284.875Z" fill="#F5F5F5"/>
</svg>
