<svg width="168" height="66" viewBox="0 0 168 66" fill="none" xmlns="http://www.w3.org/2000/svg">
<g opacity="0.8" filter="url(#filter0_d_1_79)">
<path d="M103.604 25.8116C103.907 24.9568 105.133 24.9568 105.436 25.8116V25.8116C105.566 26.1771 105.913 26.4274 106.301 26.4274H106.437C107.302 26.4274 107.642 27.5494 106.922 28.0291V28.0291C106.589 28.2512 106.45 28.6746 106.584 29.052V29.052C106.872 29.8658 105.963 30.5917 105.244 30.1128L105.059 29.9893C104.733 29.7717 104.307 29.7717 103.981 29.9893L103.796 30.1128C103.077 30.5917 102.168 29.8658 102.456 29.052V29.052C102.59 28.6746 102.451 28.2512 102.118 28.0291V28.0291C101.398 27.5494 101.738 26.4274 102.603 26.4274H102.739C103.127 26.4274 103.474 26.1771 103.604 25.8116V25.8116Z" fill="url(#paint0_linear_1_79)" shape-rendering="crispEdges"/>
</g>
<g filter="url(#filter1_d_1_79)">
<path d="M80.02 42.0518L79.8572 41.9715C77.6331 40.8543 75.6743 39.3412 74.0956 37.5209C72.5169 35.7006 71.35 33.6096 70.6632 31.3704C69.441 27.1305 69.9741 22.6256 72.1597 18.725C74.3453 14.8245 78.0283 11.8048 82.4981 10.2488C85.3475 9.29796 88.406 8.99597 91.4107 9.36876C91.7628 9.40969 92.0946 9.54272 92.3665 9.75197C92.6384 9.96122 92.839 10.2378 92.9441 10.5488C93.0374 10.8439 93.0416 11.1566 92.9562 11.4536C92.8708 11.7507 92.6991 12.0209 92.4593 12.2354C90.2527 14.0372 88.6521 16.379 87.8453 18.986C87.0385 21.593 87.059 24.3571 87.9043 26.9537C88.7735 29.5476 90.4257 31.8626 92.6697 33.6306C94.9137 35.3987 97.6578 36.5475 100.584 36.9441C100.931 36.9938 101.255 37.1331 101.519 37.3456C101.783 37.5581 101.975 37.8352 102.074 38.1443C102.172 38.4534 102.172 38.7819 102.075 39.0912C101.977 39.4006 101.786 39.678 101.523 39.8912C99.4967 41.518 97.1133 42.7262 94.5338 43.4341C92.1346 44.0921 89.6173 44.3088 87.1266 44.0716C84.6358 43.8344 82.2207 43.148 80.02 42.0518V42.0518Z" fill="url(#paint1_linear_1_79)"/>
</g>
<g opacity="0.8" filter="url(#filter2_d_1_79)">
<path d="M98.5514 16.542C98.8542 15.6871 100.081 15.6871 100.384 16.542V16.542C100.513 16.9075 100.861 17.1578 101.249 17.1578H101.385C102.25 17.1578 102.589 18.2797 101.87 18.7595V18.7595C101.536 18.9815 101.398 19.405 101.532 19.7823V19.7823C101.82 20.5962 100.911 21.322 100.192 20.8432L100.007 20.7197C99.6803 20.5021 99.255 20.5021 98.9285 20.7197L98.7432 20.8432C98.0247 21.322 97.1154 20.5962 97.4037 19.7823V19.7823C97.5373 19.405 97.3988 18.9815 97.0657 18.7595V18.7595C96.3459 18.2797 96.6855 17.1578 97.5506 17.1578H97.6864C98.0741 17.1578 98.422 16.9075 98.5514 16.542V16.542Z" fill="url(#paint2_linear_1_79)" shape-rendering="crispEdges"/>
</g>
<g opacity="0.8" filter="url(#filter3_d_1_79)">
<path d="M125.189 29.8564C125.491 29.0016 126.718 29.0016 127.021 29.8564V29.8564C127.15 30.2219 127.498 30.4722 127.886 30.4722H128.022C128.887 30.4722 129.227 31.5942 128.507 32.0739V32.0739C128.174 32.296 128.035 32.7194 128.169 33.0968V33.0968C128.457 33.9106 127.548 34.6365 126.829 34.1577L126.644 34.0341C126.317 33.8165 125.892 33.8165 125.566 34.0341L125.38 34.1577C124.662 34.6365 123.753 33.9106 124.041 33.0968V33.0968C124.174 32.7194 124.036 32.296 123.703 32.0739V32.0739C122.983 31.5942 123.323 30.4722 124.188 30.4722H124.324C124.711 30.4722 125.059 30.2219 125.189 29.8564V29.8564Z" fill="url(#paint3_linear_1_79)" shape-rendering="crispEdges"/>
</g>
<g opacity="0.8" filter="url(#filter4_d_1_79)">
<path d="M120.136 20.5868C120.439 19.7319 121.666 19.7319 121.969 20.5868V20.5868C122.098 20.9523 122.446 21.2026 122.834 21.2026H122.969C123.835 21.2026 124.174 22.3245 123.454 22.8043V22.8043C123.121 23.0263 122.983 23.4498 123.116 23.8271V23.8271C123.405 24.641 122.495 25.3668 121.777 24.888L121.592 24.7645C121.265 24.5469 120.84 24.5469 120.513 24.7645L120.328 24.888C119.61 25.3668 118.7 24.641 118.988 23.8272V23.8272C119.122 23.4498 118.984 23.0263 118.65 22.8043V22.8043C117.931 22.3245 118.27 21.2026 119.135 21.2026H119.271C119.659 21.2026 120.007 20.9523 120.136 20.5868V20.5868Z" fill="url(#paint4_linear_1_79)" shape-rendering="crispEdges"/>
</g>
<g opacity="0.8" filter="url(#filter5_d_1_79)">
<path d="M118.189 43.8564C118.491 43.0016 119.718 43.0016 120.021 43.8564V43.8564C120.15 44.2219 120.498 44.4722 120.886 44.4722H121.022C121.887 44.4722 122.227 45.5942 121.507 46.0739V46.0739C121.174 46.296 121.035 46.7194 121.169 47.0968V47.0968C121.457 47.9106 120.548 48.6365 119.829 48.1577L119.644 48.0341C119.317 47.8165 118.892 47.8165 118.566 48.0341L118.38 48.1577C117.662 48.6365 116.753 47.9106 117.041 47.0968V47.0968C117.174 46.7194 117.036 46.296 116.703 46.0739V46.0739C115.983 45.5942 116.323 44.4722 117.188 44.4722H117.324C117.711 44.4722 118.059 44.2219 118.189 43.8564V43.8564Z" fill="url(#paint5_linear_1_79)" shape-rendering="crispEdges"/>
</g>
<g opacity="0.8" filter="url(#filter6_d_1_79)">
<path d="M113.136 34.5868C113.439 33.7319 114.666 33.7319 114.969 34.5868V34.5868C115.098 34.9523 115.446 35.2026 115.834 35.2026H115.969C116.835 35.2026 117.174 36.3245 116.454 36.8043V36.8043C116.121 37.0263 115.983 37.4498 116.116 37.8271V37.8271C116.405 38.641 115.495 39.3668 114.777 38.888L114.592 38.7645C114.265 38.5469 113.84 38.5469 113.513 38.7645L113.328 38.888C112.61 39.3668 111.7 38.641 111.988 37.8272V37.8272C112.122 37.4498 111.984 37.0263 111.65 36.8043V36.8043C110.931 36.3245 111.27 35.2026 112.135 35.2026H112.271C112.659 35.2026 113.007 34.9523 113.136 34.5868V34.5868Z" fill="url(#paint6_linear_1_79)" shape-rendering="crispEdges"/>
</g>
<g opacity="0.8" filter="url(#filter7_d_1_79)">
<path d="M59.1885 16.8564C59.4913 16.0016 60.7182 16.0016 61.021 16.8564V16.8564C61.1505 17.2219 61.4983 17.4722 61.886 17.4722H62.0218C62.8869 17.4722 63.2265 18.5942 62.5067 19.0739V19.0739C62.1736 19.296 62.0351 19.7194 62.1687 20.0968V20.0968C62.457 20.9106 61.5477 21.6365 60.8292 21.1577L60.6439 21.0341C60.3174 20.8165 59.8921 20.8165 59.5657 21.0341L59.3803 21.1577C58.6619 21.6365 57.7526 20.9106 58.0408 20.0968V20.0968C58.1745 19.7194 58.036 19.296 57.7028 19.0739V19.0739C56.983 18.5942 57.3227 17.4722 58.1877 17.4722H58.3236C58.7113 17.4722 59.0591 17.2219 59.1885 16.8564V16.8564Z" fill="url(#paint7_linear_1_79)" shape-rendering="crispEdges"/>
</g>
<g opacity="0.8" filter="url(#filter8_d_1_79)">
<path d="M54.1362 7.58679C54.439 6.73194 55.6659 6.73194 55.9686 7.58679V7.58679C56.0981 7.95227 56.4459 8.20258 56.8336 8.20258H56.9695C57.8345 8.20258 58.1741 9.32454 57.4543 9.80429V9.80429C57.1212 10.0263 56.9827 10.4498 57.1163 10.8271V10.8271C57.4046 11.641 56.4953 12.3668 55.7769 11.888L55.5915 11.7645C55.265 11.5469 54.8398 11.5469 54.5133 11.7645L54.3279 11.888C53.6095 12.3668 52.7002 11.641 52.9885 10.8272V10.8272C53.1221 10.4498 52.9836 10.0263 52.6505 9.80429V9.80429C51.9307 9.32454 52.2703 8.20258 53.1353 8.20258H53.2712C53.6589 8.20258 54.0067 7.95227 54.1362 7.58679V7.58679Z" fill="url(#paint8_linear_1_79)" shape-rendering="crispEdges"/>
</g>
<g opacity="0.8" filter="url(#filter9_d_1_79)">
<path d="M54.1885 29.8564C54.4913 29.0016 55.7182 29.0016 56.021 29.8564V29.8564C56.1505 30.2219 56.4983 30.4722 56.886 30.4722H57.0218C57.8869 30.4722 58.2265 31.5942 57.5067 32.0739V32.0739C57.1736 32.296 57.0351 32.7194 57.1687 33.0968V33.0968C57.457 33.9106 56.5477 34.6365 55.8292 34.1577L55.6439 34.0341C55.3174 33.8165 54.8921 33.8165 54.5657 34.0341L54.3803 34.1577C53.6619 34.6365 52.7526 33.9106 53.0408 33.0968V33.0968C53.1745 32.7194 53.036 32.296 52.7028 32.0739V32.0739C51.983 31.5942 52.3227 30.4722 53.1877 30.4722H53.3236C53.7113 30.4722 54.0591 30.2219 54.1885 29.8564V29.8564Z" fill="url(#paint9_linear_1_79)" shape-rendering="crispEdges"/>
</g>
<g opacity="0.8" filter="url(#filter10_d_1_79)">
<path d="M49.1362 20.5868C49.439 19.7319 50.6659 19.7319 50.9686 20.5868V20.5868C51.0981 20.9523 51.4459 21.2026 51.8336 21.2026H51.9695C52.8345 21.2026 53.1741 22.3245 52.4543 22.8043V22.8043C52.1212 23.0263 51.9827 23.4498 52.1163 23.8271V23.8271C52.4046 24.641 51.4953 25.3668 50.7769 24.888L50.5915 24.7645C50.265 24.5469 49.8398 24.5469 49.5133 24.7645L49.3279 24.888C48.6095 25.3668 47.7002 24.641 47.9885 23.8272V23.8272C48.1221 23.4498 47.9836 23.0263 47.6505 22.8043V22.8043C46.9307 22.3245 47.2703 21.2026 48.1353 21.2026H48.2712C48.6589 21.2026 49.0067 20.9523 49.1362 20.5868V20.5868Z" fill="url(#paint10_linear_1_79)" shape-rendering="crispEdges"/>
</g>
<g opacity="0.8" filter="url(#filter11_d_1_79)">
<path d="M111.908 14.7951C111.622 13.9153 110.378 13.9153 110.092 14.7951V14.7951C109.964 15.1885 109.597 15.4549 109.184 15.4549V15.4549C108.259 15.4549 107.874 16.6386 108.622 17.1824V17.1824C108.957 17.4255 109.097 17.8566 108.969 18.25V18.25C108.683 19.1298 109.69 19.8614 110.439 19.3176V19.3176C110.773 19.0745 111.227 19.0745 111.561 19.3176V19.3176C112.31 19.8614 113.317 19.1298 113.031 18.25V18.25C112.903 17.8566 113.043 17.4255 113.378 17.1824V17.1824C114.126 16.6386 113.741 15.4549 112.816 15.4549V15.4549C112.403 15.4549 112.036 15.1885 111.908 14.7951V14.7951Z" fill="url(#paint11_linear_1_79)" shape-rendering="crispEdges"/>
</g>
<g opacity="0.8" filter="url(#filter12_d_1_79)">
<path d="M123.896 11.4806C123.593 10.6422 122.407 10.6422 122.104 11.4806L122.091 11.5183C121.963 11.873 121.626 12.1094 121.249 12.1094H121.087C120.245 12.1094 119.919 13.2041 120.623 13.6647V13.6647C120.952 13.8795 121.088 14.2959 120.955 14.665V14.665C120.67 15.4544 121.547 16.1689 122.249 15.7096L122.473 15.5636C122.793 15.3542 123.207 15.3542 123.527 15.5636L123.751 15.7096C124.453 16.1689 125.33 15.4544 125.045 14.665V14.665C124.912 14.2959 125.048 13.8795 125.377 13.6647V13.6647C126.081 13.2041 125.755 12.1094 124.913 12.1094H124.751C124.374 12.1094 124.037 11.873 123.909 11.5183L123.896 11.4806Z" fill="url(#paint12_linear_1_79)" shape-rendering="crispEdges"/>
</g>
<g opacity="0.8" filter="url(#filter13_d_1_79)">
<path d="M140.486 37.7599C140.155 36.8333 138.845 36.8333 138.514 37.7599L138.5 37.7976C138.359 38.1918 137.986 38.4549 137.567 38.4549H137.405C136.47 38.4549 136.106 39.6681 136.885 40.1829V40.1829C137.247 40.422 137.398 40.8816 137.252 41.2902V41.2902C136.938 42.1677 137.916 42.9559 138.694 42.4423L138.916 42.2953C139.27 42.0615 139.73 42.0615 140.084 42.2953L140.306 42.4423C141.084 42.9559 142.062 42.1677 141.748 41.2902V41.2902C141.602 40.8816 141.753 40.422 142.115 40.1829V40.1829C142.894 39.6681 142.53 38.4549 141.595 38.4549H141.433C141.014 38.4549 140.641 38.1918 140.5 37.7976L140.486 37.7599Z" fill="url(#paint13_linear_1_79)" shape-rendering="crispEdges"/>
</g>
<g opacity="0.8" filter="url(#filter14_d_1_79)">
<path d="M138.473 27.4492C138.123 26.5688 136.877 26.5688 136.527 27.4492L136.497 27.5256C136.357 27.878 136.016 28.1094 135.637 28.1094H135.316C134.465 28.1094 134.157 29.2315 134.888 29.6662V29.6662C135.242 29.8765 135.39 30.3125 135.238 30.6949L135.224 30.7311C134.913 31.5143 135.771 32.2464 136.496 31.8158L136.956 31.5424C137.291 31.343 137.709 31.343 138.044 31.5424L138.504 31.8158C139.229 32.2464 140.087 31.5143 139.776 30.7311L139.762 30.6949C139.61 30.3125 139.758 29.8765 140.112 29.6662V29.6662C140.843 29.2315 140.535 28.1094 139.684 28.1094H139.363C138.984 28.1094 138.643 27.878 138.503 27.5256L138.473 27.4492Z" fill="url(#paint14_linear_1_79)" shape-rendering="crispEdges"/>
</g>
<g opacity="0.8" filter="url(#filter15_d_1_79)">
<path d="M155.473 29.4492C155.123 28.5688 153.877 28.5688 153.527 29.4492L153.497 29.5256C153.357 29.878 153.016 30.1094 152.637 30.1094H152.316C151.465 30.1094 151.157 31.2315 151.888 31.6662V31.6662C152.242 31.8765 152.39 32.3125 152.238 32.6949L152.224 32.7311C151.913 33.5143 152.771 34.2464 153.496 33.8158L153.956 33.5424C154.291 33.343 154.709 33.343 155.044 33.5424L155.504 33.8158C156.229 34.2464 157.087 33.5143 156.776 32.7311L156.762 32.6949C156.61 32.3125 156.758 31.8765 157.112 31.6662V31.6662C157.843 31.2315 157.535 30.1094 156.684 30.1094H156.363C155.984 30.1094 155.643 29.878 155.503 29.5256L155.473 29.4492Z" fill="url(#paint15_linear_1_79)" shape-rendering="crispEdges"/>
</g>
<g opacity="0.8" filter="url(#filter16_d_1_79)">
<path d="M141.527 19.4492C141.877 18.5688 143.123 18.5688 143.473 19.4492L143.503 19.5256C143.643 19.878 143.984 20.1094 144.363 20.1094H144.684C145.535 20.1094 145.843 21.2315 145.112 21.6662V21.6662C144.758 21.8765 144.61 22.3125 144.762 22.6949L144.776 22.7311C145.087 23.5143 144.229 24.2464 143.504 23.8158L143.044 23.5424C142.709 23.343 142.291 23.343 141.956 23.5424L141.496 23.8158C140.771 24.2464 139.913 23.5143 140.224 22.7311L140.238 22.6949C140.39 22.3125 140.242 21.8765 139.888 21.6662V21.6662C139.157 21.2315 139.465 20.1094 140.316 20.1094H140.637C141.016 20.1094 141.357 19.878 141.497 19.5256L141.527 19.4492Z" fill="url(#paint16_linear_1_79)" shape-rendering="crispEdges"/>
</g>
<g opacity="0.8" filter="url(#filter17_d_1_79)">
<path d="M33.4864 37.7599C33.1552 36.8333 31.8448 36.8333 31.5136 37.7599L31.5001 37.7976C31.3592 38.1918 30.9857 38.4549 30.5671 38.4549H30.4046C29.4705 38.4549 29.106 39.6681 29.8854 40.1829V40.1829C30.2474 40.422 30.3978 40.8816 30.2518 41.2902V41.2902C29.9382 42.1677 30.9162 42.9559 31.6938 42.4423L31.9164 42.2953C32.2704 42.0615 32.7296 42.0615 33.0836 42.2953L33.3062 42.4423C34.0838 42.9559 35.0618 42.1677 34.7482 41.2902V41.2902C34.6022 40.8816 34.7526 40.422 35.1146 40.1829V40.1829C35.894 39.6681 35.5295 38.4549 34.5954 38.4549H34.4329C34.0143 38.4549 33.6408 38.1918 33.4999 37.7976L33.4864 37.7599Z" fill="url(#paint17_linear_1_79)" shape-rendering="crispEdges"/>
</g>
<g opacity="0.8" filter="url(#filter18_d_1_79)">
<path d="M14.4864 37.7599C14.1552 36.8333 12.8448 36.8333 12.5136 37.7599L12.5001 37.7976C12.3592 38.1918 11.9857 38.4549 11.5671 38.4549H11.4046C10.4705 38.4549 10.106 39.6681 10.8854 40.1829V40.1829C11.2474 40.422 11.3978 40.8816 11.2518 41.2902V41.2902C10.9382 42.1677 11.9162 42.9559 12.6938 42.4423L12.9164 42.2953C13.2704 42.0615 13.7296 42.0615 14.0836 42.2953L14.3062 42.4423C15.0838 42.9559 16.0618 42.1677 15.7482 41.2902V41.2902C15.6022 40.8816 15.7526 40.422 16.1146 40.1829V40.1829C16.894 39.6681 16.5295 38.4549 15.5954 38.4549H15.4329C15.0143 38.4549 14.6408 38.1918 14.4999 37.7976L14.4864 37.7599Z" fill="url(#paint18_linear_1_79)" shape-rendering="crispEdges"/>
</g>
<g opacity="0.8" filter="url(#filter19_d_1_79)">
<path d="M39.4726 20.4492C39.123 19.5688 37.877 19.5688 37.5274 20.4492L37.497 20.5256C37.3571 20.878 37.0162 21.1094 36.637 21.1094H36.3159C35.465 21.1094 35.1567 22.2315 35.8881 22.6662V22.6662C36.2418 22.8765 36.3903 23.3125 36.2384 23.6949L36.224 23.7311C35.913 24.5143 36.7714 25.2464 37.4957 24.8158L37.9557 24.5424C38.2912 24.343 38.7088 24.343 39.0443 24.5424L39.5043 24.8158C40.2286 25.2464 41.087 24.5143 40.776 23.7311L40.7616 23.6949C40.6097 23.3125 40.7582 22.8765 41.1119 22.6662V22.6662C41.8433 22.2315 41.535 21.1094 40.6841 21.1094H40.363C39.9838 21.1094 39.6429 20.878 39.503 20.5256L39.4726 20.4492Z" fill="url(#paint19_linear_1_79)" shape-rendering="crispEdges"/>
</g>
<g opacity="0.8" filter="url(#filter20_d_1_79)">
<path d="M23.5136 27.7599C23.8448 26.8333 25.1552 26.8333 25.4864 27.7599L25.4999 27.7976C25.6408 28.1918 26.0143 28.4549 26.4329 28.4549H26.5954C27.5295 28.4549 27.894 29.6681 27.1146 30.1829V30.1829C26.7526 30.422 26.6022 30.8816 26.7482 31.2902V31.2902C27.0618 32.1677 26.0838 32.9559 25.3062 32.4423L25.0836 32.2953C24.7296 32.0615 24.2704 32.0615 23.9164 32.2953L23.6938 32.4423C22.9162 32.9559 21.9382 32.1677 22.2518 31.2902V31.2902C22.3978 30.8816 22.2474 30.422 21.8854 30.1829V30.1829C21.106 29.6681 21.4705 28.4549 22.4046 28.4549H22.5671C22.9857 28.4549 23.3592 28.1918 23.5001 27.7976L23.5136 27.7599Z" fill="url(#paint20_linear_1_79)" shape-rendering="crispEdges"/>
</g>
<g opacity="0.8" filter="url(#filter21_d_1_79)">
<path d="M48.3287 39.8338C48.0865 39.0058 46.9135 39.0058 46.6713 39.8338V39.8338C46.5637 40.2019 46.2261 40.4549 45.8426 40.4549H45.8053C44.9441 40.4549 44.5616 41.5377 45.2317 42.0787L45.3814 42.1995C45.6744 42.4361 45.7964 42.8256 45.6907 43.1871L45.6165 43.4409C45.3828 44.24 46.3183 44.8638 46.9661 44.3408V44.3408C47.2776 44.0893 47.7224 44.0893 48.0339 44.3408V44.3408C48.6817 44.8638 49.6172 44.24 49.3835 43.4409L49.3093 43.1871C49.2036 42.8256 49.3256 42.4361 49.6186 42.1995L49.7683 42.0787C50.4384 41.5377 50.0559 40.4549 49.1947 40.4549H49.1574C48.7739 40.4549 48.4363 40.2019 48.3287 39.8338V39.8338Z" fill="url(#paint21_linear_1_79)" shape-rendering="crispEdges"/>
</g>
<g opacity="0.8" filter="url(#filter22_d_1_79)">
<path d="M43.3174 30.5156C43.0601 29.7238 41.9399 29.7238 41.6826 30.5156V30.5156C41.5676 30.8697 41.2376 31.1094 40.8653 31.1094V31.1094C40.0327 31.1094 39.6866 32.1748 40.3601 32.6641V32.6641C40.6613 32.883 40.7874 33.2709 40.6723 33.625V33.625C40.4151 34.4168 41.3213 35.0752 41.9948 34.5859V34.5859C42.2961 34.367 42.7039 34.367 43.0052 34.5859V34.5859C43.6787 35.0752 44.5849 34.4168 44.3277 33.625V33.625C44.2126 33.2709 44.3387 32.883 44.6399 32.6641V32.6641C45.3134 32.1748 44.9673 31.1094 44.1347 31.1094V31.1094C43.7624 31.1094 43.4324 30.8697 43.3174 30.5156V30.5156Z" fill="url(#paint22_linear_1_79)" shape-rendering="crispEdges"/>
</g>
<g opacity="0.8" filter="url(#filter23_d_1_79)">
<path d="M75.3104 47.3172C75.6132 46.4623 76.84 46.4623 77.1428 47.3172V47.3172C77.2723 47.6826 77.6201 47.9329 78.0078 47.9329H78.1437C79.0087 47.9329 79.3483 49.0549 78.6285 49.5347V49.5347C78.2954 49.7567 78.1569 50.1801 78.2905 50.5575V50.5575C78.5788 51.3713 77.6695 52.0972 76.9511 51.6184L76.7657 51.4948C76.4392 51.2772 76.014 51.2772 75.6875 51.4948L75.5021 51.6184C74.7837 52.0972 73.8744 51.3713 74.1627 50.5575V50.5575C74.2963 50.1801 74.1578 49.7567 73.8247 49.5347V49.5347C73.1049 49.0549 73.4445 47.9329 74.3095 47.9329H74.4454C74.8331 47.9329 75.1809 47.6826 75.3104 47.3172V47.3172Z" fill="url(#paint23_linear_1_79)" shape-rendering="crispEdges"/>
</g>
<g opacity="0.8" filter="url(#filter24_d_1_79)">
<path d="M67.4286 40.643C67.7314 39.7882 68.9583 39.7882 69.2611 40.643V40.643C69.3905 41.0085 69.7383 41.2588 70.126 41.2588H70.2619C71.1269 41.2588 71.4666 42.3808 70.7468 42.8605V42.8605C70.4136 43.0826 70.2751 43.506 70.4088 43.8834V43.8834C70.697 44.6972 69.7877 45.4231 69.0693 44.9443L68.8839 44.8207C68.5575 44.6031 68.1322 44.6031 67.8057 44.8207L67.6204 44.9443C66.9019 45.4231 65.9926 44.6972 66.2809 43.8834V43.8834C66.4145 43.506 66.276 43.0826 65.9429 42.8605V42.8605C65.2231 42.3808 65.5627 41.2588 66.4278 41.2588H66.5636C66.9513 41.2588 67.2991 41.0085 67.4286 40.643V40.643Z" fill="url(#paint24_linear_1_79)" shape-rendering="crispEdges"/>
</g>
<defs>
<filter id="filter0_d_1_79" x="91.7271" y="19.1705" width="25.5859" height="25.0954" filterUnits="userSpaceOnUse" color-interpolation-filters="sRGB">
<feFlood flood-opacity="0" result="BackgroundImageFix"/>
<feColorMatrix in="SourceAlpha" type="matrix" values="0 0 0 0 0 0 0 0 0 0 0 0 0 0 0 0 0 0 127 0" result="hardAlpha"/>
<feOffset dy="4"/>
<feGaussianBlur stdDeviation="5"/>
<feComposite in2="hardAlpha" operator="out"/>
<feColorMatrix type="matrix" values="0 0 0 0 0 0 0 0 0 0 0 0 0 0 0 0 0 0 0.15 0"/>
<feBlend mode="normal" in2="BackgroundImageFix" result="effect1_dropShadow_1_79"/>
<feBlend mode="normal" in="SourceGraphic" in2="effect1_dropShadow_1_79" result="shape"/>
</filter>
<filter id="filter1_d_1_79" x="60.0205" y="3.21375" width="52.1272" height="54.951" filterUnits="userSpaceOnUse" color-interpolation-filters="sRGB">
<feFlood flood-opacity="0" result="BackgroundImageFix"/>
<feColorMatrix in="SourceAlpha" type="matrix" values="0 0 0 0 0 0 0 0 0 0 0 0 0 0 0 0 0 0 127 0" result="hardAlpha"/>
<feOffset dy="4"/>
<feGaussianBlur stdDeviation="5"/>
<feComposite in2="hardAlpha" operator="out"/>
<feColorMatrix type="matrix" values="0 0 0 0 0 0 0 0 0 0 0 0 0 0 0 0 0 0 0.25 0"/>
<feBlend mode="normal" in2="BackgroundImageFix" result="effect1_dropShadow_1_79"/>
<feBlend mode="normal" in="SourceGraphic" in2="effect1_dropShadow_1_79" result="shape"/>
</filter>
<filter id="filter2_d_1_79" x="86.6747" y="9.90085" width="25.5859" height="25.0954" filterUnits="userSpaceOnUse" color-interpolation-filters="sRGB">
<feFlood flood-opacity="0" result="BackgroundImageFix"/>
<feColorMatrix in="SourceAlpha" type="matrix" values="0 0 0 0 0 0 0 0 0 0 0 0 0 0 0 0 0 0 127 0" result="hardAlpha"/>
<feOffset dy="4"/>
<feGaussianBlur stdDeviation="5"/>
<feComposite in2="hardAlpha" operator="out"/>
<feColorMatrix type="matrix" values="0 0 0 0 0 0 0 0 0 0 0 0 0 0 0 0 0 0 0.15 0"/>
<feBlend mode="normal" in2="BackgroundImageFix" result="effect1_dropShadow_1_79"/>
<feBlend mode="normal" in="SourceGraphic" in2="effect1_dropShadow_1_79" result="shape"/>
</filter>
<filter id="filter3_d_1_79" x="113.312" y="23.2153" width="25.5859" height="25.0954" filterUnits="userSpaceOnUse" color-interpolation-filters="sRGB">
<feFlood flood-opacity="0" result="BackgroundImageFix"/>
<feColorMatrix in="SourceAlpha" type="matrix" values="0 0 0 0 0 0 0 0 0 0 0 0 0 0 0 0 0 0 127 0" result="hardAlpha"/>
<feOffset dy="4"/>
<feGaussianBlur stdDeviation="5"/>
<feComposite in2="hardAlpha" operator="out"/>
<feColorMatrix type="matrix" values="0 0 0 0 0 0 0 0 0 0 0 0 0 0 0 0 0 0 0.15 0"/>
<feBlend mode="normal" in2="BackgroundImageFix" result="effect1_dropShadow_1_79"/>
<feBlend mode="normal" in="SourceGraphic" in2="effect1_dropShadow_1_79" result="shape"/>
</filter>
<filter id="filter4_d_1_79" x="108.259" y="13.9457" width="25.5859" height="25.0954" filterUnits="userSpaceOnUse" color-interpolation-filters="sRGB">
<feFlood flood-opacity="0" result="BackgroundImageFix"/>
<feColorMatrix in="SourceAlpha" type="matrix" values="0 0 0 0 0 0 0 0 0 0 0 0 0 0 0 0 0 0 127 0" result="hardAlpha"/>
<feOffset dy="4"/>
<feGaussianBlur stdDeviation="5"/>
<feComposite in2="hardAlpha" operator="out"/>
<feColorMatrix type="matrix" values="0 0 0 0 0 0 0 0 0 0 0 0 0 0 0 0 0 0 0.15 0"/>
<feBlend mode="normal" in2="BackgroundImageFix" result="effect1_dropShadow_1_79"/>
<feBlend mode="normal" in="SourceGraphic" in2="effect1_dropShadow_1_79" result="shape"/>
</filter>
<filter id="filter5_d_1_79" x="106.312" y="37.2153" width="25.5859" height="25.0954" filterUnits="userSpaceOnUse" color-interpolation-filters="sRGB">
<feFlood flood-opacity="0" result="BackgroundImageFix"/>
<feColorMatrix in="SourceAlpha" type="matrix" values="0 0 0 0 0 0 0 0 0 0 0 0 0 0 0 0 0 0 127 0" result="hardAlpha"/>
<feOffset dy="4"/>
<feGaussianBlur stdDeviation="5"/>
<feComposite in2="hardAlpha" operator="out"/>
<feColorMatrix type="matrix" values="0 0 0 0 0 0 0 0 0 0 0 0 0 0 0 0 0 0 0.15 0"/>
<feBlend mode="normal" in2="BackgroundImageFix" result="effect1_dropShadow_1_79"/>
<feBlend mode="normal" in="SourceGraphic" in2="effect1_dropShadow_1_79" result="shape"/>
</filter>
<filter id="filter6_d_1_79" x="101.259" y="27.9457" width="25.5859" height="25.0954" filterUnits="userSpaceOnUse" color-interpolation-filters="sRGB">
<feFlood flood-opacity="0" result="BackgroundImageFix"/>
<feColorMatrix in="SourceAlpha" type="matrix" values="0 0 0 0 0 0 0 0 0 0 0 0 0 0 0 0 0 0 127 0" result="hardAlpha"/>
<feOffset dy="4"/>
<feGaussianBlur stdDeviation="5"/>
<feComposite in2="hardAlpha" operator="out"/>
<feColorMatrix type="matrix" values="0 0 0 0 0 0 0 0 0 0 0 0 0 0 0 0 0 0 0.15 0"/>
<feBlend mode="normal" in2="BackgroundImageFix" result="effect1_dropShadow_1_79"/>
<feBlend mode="normal" in="SourceGraphic" in2="effect1_dropShadow_1_79" result="shape"/>
</filter>
<filter id="filter7_d_1_79" x="47.3118" y="10.2153" width="25.5859" height="25.0954" filterUnits="userSpaceOnUse" color-interpolation-filters="sRGB">
<feFlood flood-opacity="0" result="BackgroundImageFix"/>
<feColorMatrix in="SourceAlpha" type="matrix" values="0 0 0 0 0 0 0 0 0 0 0 0 0 0 0 0 0 0 127 0" result="hardAlpha"/>
<feOffset dy="4"/>
<feGaussianBlur stdDeviation="5"/>
<feComposite in2="hardAlpha" operator="out"/>
<feColorMatrix type="matrix" values="0 0 0 0 0 0 0 0 0 0 0 0 0 0 0 0 0 0 0.15 0"/>
<feBlend mode="normal" in2="BackgroundImageFix" result="effect1_dropShadow_1_79"/>
<feBlend mode="normal" in="SourceGraphic" in2="effect1_dropShadow_1_79" result="shape"/>
</filter>
<filter id="filter8_d_1_79" x="42.2595" y="0.945663" width="25.5859" height="25.0954" filterUnits="userSpaceOnUse" color-interpolation-filters="sRGB">
<feFlood flood-opacity="0" result="BackgroundImageFix"/>
<feColorMatrix in="SourceAlpha" type="matrix" values="0 0 0 0 0 0 0 0 0 0 0 0 0 0 0 0 0 0 127 0" result="hardAlpha"/>
<feOffset dy="4"/>
<feGaussianBlur stdDeviation="5"/>
<feComposite in2="hardAlpha" operator="out"/>
<feColorMatrix type="matrix" values="0 0 0 0 0 0 0 0 0 0 0 0 0 0 0 0 0 0 0.15 0"/>
<feBlend mode="normal" in2="BackgroundImageFix" result="effect1_dropShadow_1_79"/>
<feBlend mode="normal" in="SourceGraphic" in2="effect1_dropShadow_1_79" result="shape"/>
</filter>
<filter id="filter9_d_1_79" x="42.3118" y="23.2153" width="25.5859" height="25.0954" filterUnits="userSpaceOnUse" color-interpolation-filters="sRGB">
<feFlood flood-opacity="0" result="BackgroundImageFix"/>
<feColorMatrix in="SourceAlpha" type="matrix" values="0 0 0 0 0 0 0 0 0 0 0 0 0 0 0 0 0 0 127 0" result="hardAlpha"/>
<feOffset dy="4"/>
<feGaussianBlur stdDeviation="5"/>
<feComposite in2="hardAlpha" operator="out"/>
<feColorMatrix type="matrix" values="0 0 0 0 0 0 0 0 0 0 0 0 0 0 0 0 0 0 0.15 0"/>
<feBlend mode="normal" in2="BackgroundImageFix" result="effect1_dropShadow_1_79"/>
<feBlend mode="normal" in="SourceGraphic" in2="effect1_dropShadow_1_79" result="shape"/>
</filter>
<filter id="filter10_d_1_79" x="37.2595" y="13.9457" width="25.5859" height="25.0954" filterUnits="userSpaceOnUse" color-interpolation-filters="sRGB">
<feFlood flood-opacity="0" result="BackgroundImageFix"/>
<feColorMatrix in="SourceAlpha" type="matrix" values="0 0 0 0 0 0 0 0 0 0 0 0 0 0 0 0 0 0 127 0" result="hardAlpha"/>
<feOffset dy="4"/>
<feGaussianBlur stdDeviation="5"/>
<feComposite in2="hardAlpha" operator="out"/>
<feColorMatrix type="matrix" values="0 0 0 0 0 0 0 0 0 0 0 0 0 0 0 0 0 0 0.15 0"/>
<feBlend mode="normal" in2="BackgroundImageFix" result="effect1_dropShadow_1_79"/>
<feBlend mode="normal" in="SourceGraphic" in2="effect1_dropShadow_1_79" result="shape"/>
</filter>
<filter id="filter11_d_1_79" x="98.2269" y="8.13525" width="25.5463" height="25.3691" filterUnits="userSpaceOnUse" color-interpolation-filters="sRGB">
<feFlood flood-opacity="0" result="BackgroundImageFix"/>
<feColorMatrix in="SourceAlpha" type="matrix" values="0 0 0 0 0 0 0 0 0 0 0 0 0 0 0 0 0 0 127 0" result="hardAlpha"/>
<feOffset dy="4"/>
<feGaussianBlur stdDeviation="5"/>
<feComposite in2="hardAlpha" operator="out"/>
<feColorMatrix type="matrix" values="0 0 0 0 0 0 0 0 0 0 0 0 0 0 0 0 0 0 0.15 0"/>
<feBlend mode="normal" in2="BackgroundImageFix" result="effect1_dropShadow_1_79"/>
<feBlend mode="normal" in="SourceGraphic" in2="effect1_dropShadow_1_79" result="shape"/>
</filter>
<filter id="filter12_d_1_79" x="110.238" y="4.85179" width="25.5232" height="25.0022" filterUnits="userSpaceOnUse" color-interpolation-filters="sRGB">
<feFlood flood-opacity="0" result="BackgroundImageFix"/>
<feColorMatrix in="SourceAlpha" type="matrix" values="0 0 0 0 0 0 0 0 0 0 0 0 0 0 0 0 0 0 127 0" result="hardAlpha"/>
<feOffset dy="4"/>
<feGaussianBlur stdDeviation="5"/>
<feComposite in2="hardAlpha" operator="out"/>
<feColorMatrix type="matrix" values="0 0 0 0 0 0 0 0 0 0 0 0 0 0 0 0 0 0 0.15 0"/>
<feBlend mode="normal" in2="BackgroundImageFix" result="effect1_dropShadow_1_79"/>
<feBlend mode="normal" in="SourceGraphic" in2="effect1_dropShadow_1_79" result="shape"/>
</filter>
<filter id="filter13_d_1_79" x="126.461" y="31.065" width="26.0782" height="25.5402" filterUnits="userSpaceOnUse" color-interpolation-filters="sRGB">
<feFlood flood-opacity="0" result="BackgroundImageFix"/>
<feColorMatrix in="SourceAlpha" type="matrix" values="0 0 0 0 0 0 0 0 0 0 0 0 0 0 0 0 0 0 127 0" result="hardAlpha"/>
<feOffset dy="4"/>
<feGaussianBlur stdDeviation="5"/>
<feComposite in2="hardAlpha" operator="out"/>
<feColorMatrix type="matrix" values="0 0 0 0 0 0 0 0 0 0 0 0 0 0 0 0 0 0 0.15 0"/>
<feBlend mode="normal" in2="BackgroundImageFix" result="effect1_dropShadow_1_79"/>
<feBlend mode="normal" in="SourceGraphic" in2="effect1_dropShadow_1_79" result="shape"/>
</filter>
<filter id="filter14_d_1_79" x="124.477" y="20.7889" width="26.0454" height="25.1547" filterUnits="userSpaceOnUse" color-interpolation-filters="sRGB">
<feFlood flood-opacity="0" result="BackgroundImageFix"/>
<feColorMatrix in="SourceAlpha" type="matrix" values="0 0 0 0 0 0 0 0 0 0 0 0 0 0 0 0 0 0 127 0" result="hardAlpha"/>
<feOffset dy="4"/>
<feGaussianBlur stdDeviation="5"/>
<feComposite in2="hardAlpha" operator="out"/>
<feColorMatrix type="matrix" values="0 0 0 0 0 0 0 0 0 0 0 0 0 0 0 0 0 0 0.15 0"/>
<feBlend mode="normal" in2="BackgroundImageFix" result="effect1_dropShadow_1_79"/>
<feBlend mode="normal" in="SourceGraphic" in2="effect1_dropShadow_1_79" result="shape"/>
</filter>
<filter id="filter15_d_1_79" x="141.477" y="22.7889" width="26.0454" height="25.1547" filterUnits="userSpaceOnUse" color-interpolation-filters="sRGB">
<feFlood flood-opacity="0" result="BackgroundImageFix"/>
<feColorMatrix in="SourceAlpha" type="matrix" values="0 0 0 0 0 0 0 0 0 0 0 0 0 0 0 0 0 0 127 0" result="hardAlpha"/>
<feOffset dy="4"/>
<feGaussianBlur stdDeviation="5"/>
<feComposite in2="hardAlpha" operator="out"/>
<feColorMatrix type="matrix" values="0 0 0 0 0 0 0 0 0 0 0 0 0 0 0 0 0 0 0.15 0"/>
<feBlend mode="normal" in2="BackgroundImageFix" result="effect1_dropShadow_1_79"/>
<feBlend mode="normal" in="SourceGraphic" in2="effect1_dropShadow_1_79" result="shape"/>
</filter>
<filter id="filter16_d_1_79" x="129.477" y="12.7889" width="26.0454" height="25.1547" filterUnits="userSpaceOnUse" color-interpolation-filters="sRGB">
<feFlood flood-opacity="0" result="BackgroundImageFix"/>
<feColorMatrix in="SourceAlpha" type="matrix" values="0 0 0 0 0 0 0 0 0 0 0 0 0 0 0 0 0 0 127 0" result="hardAlpha"/>
<feOffset dy="4"/>
<feGaussianBlur stdDeviation="5"/>
<feComposite in2="hardAlpha" operator="out"/>
<feColorMatrix type="matrix" values="0 0 0 0 0 0 0 0 0 0 0 0 0 0 0 0 0 0 0.15 0"/>
<feBlend mode="normal" in2="BackgroundImageFix" result="effect1_dropShadow_1_79"/>
<feBlend mode="normal" in="SourceGraphic" in2="effect1_dropShadow_1_79" result="shape"/>
</filter>
<filter id="filter17_d_1_79" x="19.4609" y="31.065" width="26.0782" height="25.5402" filterUnits="userSpaceOnUse" color-interpolation-filters="sRGB">
<feFlood flood-opacity="0" result="BackgroundImageFix"/>
<feColorMatrix in="SourceAlpha" type="matrix" values="0 0 0 0 0 0 0 0 0 0 0 0 0 0 0 0 0 0 127 0" result="hardAlpha"/>
<feOffset dy="4"/>
<feGaussianBlur stdDeviation="5"/>
<feComposite in2="hardAlpha" operator="out"/>
<feColorMatrix type="matrix" values="0 0 0 0 0 0 0 0 0 0 0 0 0 0 0 0 0 0 0.15 0"/>
<feBlend mode="normal" in2="BackgroundImageFix" result="effect1_dropShadow_1_79"/>
<feBlend mode="normal" in="SourceGraphic" in2="effect1_dropShadow_1_79" result="shape"/>
</filter>
<filter id="filter18_d_1_79" x="0.460876" y="31.065" width="26.0782" height="25.5402" filterUnits="userSpaceOnUse" color-interpolation-filters="sRGB">
<feFlood flood-opacity="0" result="BackgroundImageFix"/>
<feColorMatrix in="SourceAlpha" type="matrix" values="0 0 0 0 0 0 0 0 0 0 0 0 0 0 0 0 0 0 127 0" result="hardAlpha"/>
<feOffset dy="4"/>
<feGaussianBlur stdDeviation="5"/>
<feComposite in2="hardAlpha" operator="out"/>
<feColorMatrix type="matrix" values="0 0 0 0 0 0 0 0 0 0 0 0 0 0 0 0 0 0 0.15 0"/>
<feBlend mode="normal" in2="BackgroundImageFix" result="effect1_dropShadow_1_79"/>
<feBlend mode="normal" in="SourceGraphic" in2="effect1_dropShadow_1_79" result="shape"/>
</filter>
<filter id="filter19_d_1_79" x="25.4773" y="13.7889" width="26.0454" height="25.1547" filterUnits="userSpaceOnUse" color-interpolation-filters="sRGB">
<feFlood flood-opacity="0" result="BackgroundImageFix"/>
<feColorMatrix in="SourceAlpha" type="matrix" values="0 0 0 0 0 0 0 0 0 0 0 0 0 0 0 0 0 0 127 0" result="hardAlpha"/>
<feOffset dy="4"/>
<feGaussianBlur stdDeviation="5"/>
<feComposite in2="hardAlpha" operator="out"/>
<feColorMatrix type="matrix" values="0 0 0 0 0 0 0 0 0 0 0 0 0 0 0 0 0 0 0.15 0"/>
<feBlend mode="normal" in2="BackgroundImageFix" result="effect1_dropShadow_1_79"/>
<feBlend mode="normal" in="SourceGraphic" in2="effect1_dropShadow_1_79" result="shape"/>
</filter>
<filter id="filter20_d_1_79" x="11.4609" y="21.065" width="26.0782" height="25.5402" filterUnits="userSpaceOnUse" color-interpolation-filters="sRGB">
<feFlood flood-opacity="0" result="BackgroundImageFix"/>
<feColorMatrix in="SourceAlpha" type="matrix" values="0 0 0 0 0 0 0 0 0 0 0 0 0 0 0 0 0 0 127 0" result="hardAlpha"/>
<feOffset dy="4"/>
<feGaussianBlur stdDeviation="5"/>
<feComposite in2="hardAlpha" operator="out"/>
<feColorMatrix type="matrix" values="0 0 0 0 0 0 0 0 0 0 0 0 0 0 0 0 0 0 0.15 0"/>
<feBlend mode="normal" in2="BackgroundImageFix" result="effect1_dropShadow_1_79"/>
<feBlend mode="normal" in="SourceGraphic" in2="effect1_dropShadow_1_79" result="shape"/>
</filter>
<filter id="filter21_d_1_79" x="34.8903" y="33.2128" width="25.2195" height="25.3205" filterUnits="userSpaceOnUse" color-interpolation-filters="sRGB">
<feFlood flood-opacity="0" result="BackgroundImageFix"/>
<feColorMatrix in="SourceAlpha" type="matrix" values="0 0 0 0 0 0 0 0 0 0 0 0 0 0 0 0 0 0 127 0" result="hardAlpha"/>
<feOffset dy="4"/>
<feGaussianBlur stdDeviation="5"/>
<feComposite in2="hardAlpha" operator="out"/>
<feColorMatrix type="matrix" values="0 0 0 0 0 0 0 0 0 0 0 0 0 0 0 0 0 0 0.15 0"/>
<feBlend mode="normal" in2="BackgroundImageFix" result="effect1_dropShadow_1_79"/>
<feBlend mode="normal" in="SourceGraphic" in2="effect1_dropShadow_1_79" result="shape"/>
</filter>
<filter id="filter22_d_1_79" x="30.0042" y="23.9217" width="24.9916" height="24.8322" filterUnits="userSpaceOnUse" color-interpolation-filters="sRGB">
<feFlood flood-opacity="0" result="BackgroundImageFix"/>
<feColorMatrix in="SourceAlpha" type="matrix" values="0 0 0 0 0 0 0 0 0 0 0 0 0 0 0 0 0 0 127 0" result="hardAlpha"/>
<feOffset dy="4"/>
<feGaussianBlur stdDeviation="5"/>
<feComposite in2="hardAlpha" operator="out"/>
<feColorMatrix type="matrix" values="0 0 0 0 0 0 0 0 0 0 0 0 0 0 0 0 0 0 0.15 0"/>
<feBlend mode="normal" in2="BackgroundImageFix" result="effect1_dropShadow_1_79"/>
<feBlend mode="normal" in="SourceGraphic" in2="effect1_dropShadow_1_79" result="shape"/>
</filter>
<filter id="filter23_d_1_79" x="63.4337" y="40.676" width="25.5859" height="25.0954" filterUnits="userSpaceOnUse" color-interpolation-filters="sRGB">
<feFlood flood-opacity="0" result="BackgroundImageFix"/>
<feColorMatrix in="SourceAlpha" type="matrix" values="0 0 0 0 0 0 0 0 0 0 0 0 0 0 0 0 0 0 127 0" result="hardAlpha"/>
<feOffset dy="4"/>
<feGaussianBlur stdDeviation="5"/>
<feComposite in2="hardAlpha" operator="out"/>
<feColorMatrix type="matrix" values="0 0 0 0 0 0 0 0 0 0 0 0 0 0 0 0 0 0 0.15 0"/>
<feBlend mode="normal" in2="BackgroundImageFix" result="effect1_dropShadow_1_79"/>
<feBlend mode="normal" in="SourceGraphic" in2="effect1_dropShadow_1_79" result="shape"/>
</filter>
<filter id="filter24_d_1_79" x="55.5519" y="34.0019" width="25.5859" height="25.0954" filterUnits="userSpaceOnUse" color-interpolation-filters="sRGB">
<feFlood flood-opacity="0" result="BackgroundImageFix"/>
<feColorMatrix in="SourceAlpha" type="matrix" values="0 0 0 0 0 0 0 0 0 0 0 0 0 0 0 0 0 0 127 0" result="hardAlpha"/>
<feOffset dy="4"/>
<feGaussianBlur stdDeviation="5"/>
<feComposite in2="hardAlpha" operator="out"/>
<feColorMatrix type="matrix" values="0 0 0 0 0 0 0 0 0 0 0 0 0 0 0 0 0 0 0.15 0"/>
<feBlend mode="normal" in2="BackgroundImageFix" result="effect1_dropShadow_1_79"/>
<feBlend mode="normal" in="SourceGraphic" in2="effect1_dropShadow_1_79" result="shape"/>
</filter>
<linearGradient id="paint0_linear_1_79" x1="104.52" y1="23.2248" x2="104.52" y2="32.4945" gradientUnits="userSpaceOnUse">
<stop offset="0.317708" stop-color="#FFE55E"/>
<stop offset="1" stop-color="#FFE55E" stop-opacity="0"/>
</linearGradient>
<linearGradient id="paint1_linear_1_79" x1="97.0398" y1="12.017" x2="83.1429" y2="41.3524" gradientUnits="userSpaceOnUse">
<stop stop-color="#FFF9C4"/>
<stop offset="0.848958" stop-color="#FFFCEE"/>
<stop offset="1" stop-color="#FFFADB"/>
</linearGradient>
<linearGradient id="paint2_linear_1_79" x1="99.4676" y1="13.9552" x2="99.4676" y2="23.2248" gradientUnits="userSpaceOnUse">
<stop offset="0.317708" stop-color="#FFE55E"/>
<stop offset="1" stop-color="#FFE55E" stop-opacity="0"/>
</linearGradient>
<linearGradient id="paint3_linear_1_79" x1="126.105" y1="27.2697" x2="126.105" y2="36.5393" gradientUnits="userSpaceOnUse">
<stop offset="0.317708" stop-color="#FFE55E"/>
<stop offset="1" stop-color="#FFE55E" stop-opacity="0"/>
</linearGradient>
<linearGradient id="paint4_linear_1_79" x1="121.052" y1="18" x2="121.052" y2="27.2696" gradientUnits="userSpaceOnUse">
<stop offset="0.317708" stop-color="#FFE55E"/>
<stop offset="1" stop-color="#FFE55E" stop-opacity="0"/>
</linearGradient>
<linearGradient id="paint5_linear_1_79" x1="119.105" y1="41.2697" x2="119.105" y2="50.5393" gradientUnits="userSpaceOnUse">
<stop offset="0.317708" stop-color="#FFE55E"/>
<stop offset="1" stop-color="#FFE55E" stop-opacity="0"/>
</linearGradient>
<linearGradient id="paint6_linear_1_79" x1="114.052" y1="32" x2="114.052" y2="41.2696" gradientUnits="userSpaceOnUse">
<stop offset="0.317708" stop-color="#FFE55E"/>
<stop offset="1" stop-color="#FFE55E" stop-opacity="0"/>
</linearGradient>
<linearGradient id="paint7_linear_1_79" x1="60.1048" y1="14.2697" x2="60.1048" y2="23.5393" gradientUnits="userSpaceOnUse">
<stop offset="0.317708" stop-color="#FFE55E"/>
<stop offset="1" stop-color="#FFE55E" stop-opacity="0"/>
</linearGradient>
<linearGradient id="paint8_linear_1_79" x1="55.0524" y1="5" x2="55.0524" y2="14.2696" gradientUnits="userSpaceOnUse">
<stop offset="0.317708" stop-color="#FFE55E"/>
<stop offset="1" stop-color="#FFE55E" stop-opacity="0"/>
</linearGradient>
<linearGradient id="paint9_linear_1_79" x1="55.1048" y1="27.2697" x2="55.1048" y2="36.5393" gradientUnits="userSpaceOnUse">
<stop offset="0.317708" stop-color="#FFE55E"/>
<stop offset="1" stop-color="#FFE55E" stop-opacity="0"/>
</linearGradient>
<linearGradient id="paint10_linear_1_79" x1="50.0524" y1="18" x2="50.0524" y2="27.2696" gradientUnits="userSpaceOnUse">
<stop offset="0.317708" stop-color="#FFE55E"/>
<stop offset="1" stop-color="#FFE55E" stop-opacity="0"/>
</linearGradient>
<linearGradient id="paint11_linear_1_79" x1="111" y1="12" x2="111" y2="22" gradientUnits="userSpaceOnUse">
<stop offset="0.317708" stop-color="#FFE55E"/>
<stop offset="1" stop-color="#FFE55E" stop-opacity="0"/>
</linearGradient>
<linearGradient id="paint12_linear_1_79" x1="123" y1="9" x2="123" y2="18" gradientUnits="userSpaceOnUse">
<stop offset="0.317708" stop-color="#FFE55E"/>
<stop offset="1" stop-color="#FFE55E" stop-opacity="0"/>
</linearGradient>
<linearGradient id="paint13_linear_1_79" x1="139.5" y1="35" x2="139.5" y2="45" gradientUnits="userSpaceOnUse">
<stop offset="0.317708" stop-color="#FFE55E"/>
<stop offset="1" stop-color="#FFE55E" stop-opacity="0"/>
</linearGradient>
<linearGradient id="paint14_linear_1_79" x1="137.5" y1="25" x2="137.5" y2="34" gradientUnits="userSpaceOnUse">
<stop offset="0.317708" stop-color="#FFE55E"/>
<stop offset="1" stop-color="#FFE55E" stop-opacity="0"/>
</linearGradient>
<linearGradient id="paint15_linear_1_79" x1="154.5" y1="27" x2="154.5" y2="36" gradientUnits="userSpaceOnUse">
<stop offset="0.317708" stop-color="#FFE55E"/>
<stop offset="1" stop-color="#FFE55E" stop-opacity="0"/>
</linearGradient>
<linearGradient id="paint16_linear_1_79" x1="142.5" y1="17" x2="142.5" y2="26" gradientUnits="userSpaceOnUse">
<stop offset="0.317708" stop-color="#FFE55E"/>
<stop offset="1" stop-color="#FFE55E" stop-opacity="0"/>
</linearGradient>
<linearGradient id="paint17_linear_1_79" x1="32.5" y1="35" x2="32.5" y2="45" gradientUnits="userSpaceOnUse">
<stop offset="0.317708" stop-color="#FFE55E"/>
<stop offset="1" stop-color="#FFE55E" stop-opacity="0"/>
</linearGradient>
<linearGradient id="paint18_linear_1_79" x1="13.5" y1="35" x2="13.5" y2="45" gradientUnits="userSpaceOnUse">
<stop offset="0.317708" stop-color="#FFE55E"/>
<stop offset="1" stop-color="#FFE55E" stop-opacity="0"/>
</linearGradient>
<linearGradient id="paint19_linear_1_79" x1="38.5" y1="18" x2="38.5" y2="27" gradientUnits="userSpaceOnUse">
<stop offset="0.317708" stop-color="#FFE55E"/>
<stop offset="1" stop-color="#FFE55E" stop-opacity="0"/>
</linearGradient>
<linearGradient id="paint20_linear_1_79" x1="24.5" y1="25" x2="24.5" y2="35" gradientUnits="userSpaceOnUse">
<stop offset="0.317708" stop-color="#FFE55E"/>
<stop offset="1" stop-color="#FFE55E" stop-opacity="0"/>
</linearGradient>
<linearGradient id="paint21_linear_1_79" x1="47.5" y1="37" x2="47.5" y2="47" gradientUnits="userSpaceOnUse">
<stop offset="0.317708" stop-color="#FFE55E"/>
<stop offset="1" stop-color="#FFE55E" stop-opacity="0"/>
</linearGradient>
<linearGradient id="paint22_linear_1_79" x1="42.5" y1="28" x2="42.5" y2="37" gradientUnits="userSpaceOnUse">
<stop offset="0.317708" stop-color="#FFE55E"/>
<stop offset="1" stop-color="#FFE55E" stop-opacity="0"/>
</linearGradient>
<linearGradient id="paint23_linear_1_79" x1="76.2266" y1="44.7304" x2="76.2266" y2="54" gradientUnits="userSpaceOnUse">
<stop offset="0.317708" stop-color="#FFE55E"/>
<stop offset="1" stop-color="#FFE55E" stop-opacity="0"/>
</linearGradient>
<linearGradient id="paint24_linear_1_79" x1="68.3448" y1="38.0562" x2="68.3448" y2="47.3259" gradientUnits="userSpaceOnUse">
<stop offset="0.317708" stop-color="#FFE55E"/>
<stop offset="1" stop-color="#FFE55E" stop-opacity="0"/>
</linearGradient>
</defs>
</svg>
