<svg width="389" height="134" viewBox="0 0 389 134" fill="none" xmlns="http://www.w3.org/2000/svg">
<g opacity="0.8" filter="url(#filter0_d_1_79)">
<path d="M243.638 54.6726C244.397 52.5298 247.473 52.5298 248.232 54.6726V54.6726C248.556 55.5887 249.428 56.2161 250.4 56.2161H250.74C252.909 56.2161 253.76 59.0284 251.956 60.2309V60.2309C251.121 60.7874 250.773 61.8489 251.108 62.7948V62.7948C251.831 64.8347 249.552 66.6541 247.751 65.4539L247.286 65.1442C246.468 64.5988 245.402 64.5988 244.584 65.1442L244.119 65.4539C242.318 66.6541 240.039 64.8347 240.762 62.7948V62.7948C241.097 61.8489 240.749 60.7874 239.914 60.2309V60.2309C238.11 59.0284 238.961 56.2161 241.13 56.2161H241.47C242.442 56.2161 243.314 55.5887 243.638 54.6726V54.6726Z" fill="url(#paint0_linear_1_79)" shape-rendering="crispEdges"/>
</g>
<g filter="url(#filter1_d_1_79)">
<path d="M184.524 95.3799L184.116 95.1786C178.541 92.3782 173.631 88.5856 169.674 84.0228C165.717 79.4601 162.792 74.2189 161.07 68.6062C158.007 57.9785 159.343 46.6865 164.821 36.9094C170.3 27.1324 179.532 19.5634 190.735 15.6631C197.878 13.2798 205.544 12.5228 213.075 13.4572C213.958 13.5598 214.79 13.8933 215.471 14.4178C216.153 14.9423 216.656 15.6357 216.919 16.4151C217.153 17.1547 217.163 17.9386 216.949 18.6831C216.735 19.4277 216.305 20.1049 215.704 20.6426C210.173 25.1591 206.161 31.029 204.138 37.5637C202.116 44.0983 202.168 51.0266 204.287 57.5354C206.465 64.037 210.607 69.8397 216.231 74.2715C221.856 78.7033 228.734 81.583 236.069 82.5771C236.939 82.7016 237.752 83.0507 238.413 83.5834C239.074 84.1161 239.556 84.8105 239.803 85.5853C240.049 86.3602 240.051 87.1835 239.806 87.9589C239.562 88.7343 239.081 89.4298 238.422 89.9641C233.344 94.0418 227.369 97.0703 220.904 98.8446C214.89 100.494 208.58 101.037 202.337 100.443C196.094 99.848 190.04 98.1275 184.524 95.3799V95.3799Z" fill="url(#paint1_linear_1_79)"/>
</g>
<g opacity="0.8" filter="url(#filter2_d_1_79)">
<path d="M230.974 31.4375C231.733 29.2947 234.808 29.2947 235.567 31.4375V31.4375C235.892 32.3536 236.764 32.981 237.736 32.981H238.076C240.244 32.981 241.096 35.7933 239.291 36.9958V36.9958C238.456 37.5523 238.109 38.6138 238.444 39.5597V39.5597C239.167 41.5996 236.888 43.419 235.087 42.2188L234.622 41.9091C233.804 41.3637 232.738 41.3637 231.92 41.9091L231.455 42.2188C229.654 43.419 227.375 41.5996 228.097 39.5597V39.5597C228.432 38.6138 228.085 37.5523 227.25 36.9958V36.9958C225.446 35.7933 226.297 32.981 228.466 32.981H228.806C229.778 32.981 230.65 32.3536 230.974 31.4375V31.4375Z" fill="url(#paint2_linear_1_79)" shape-rendering="crispEdges"/>
</g>
<g opacity="0.8" filter="url(#filter3_d_1_79)">
<path d="M297.742 64.8112C298.501 62.6685 301.577 62.6685 302.336 64.8112V64.8112C302.66 65.7273 303.532 66.3547 304.504 66.3547H304.844C307.013 66.3547 307.864 69.167 306.06 70.3696V70.3696C305.225 70.9261 304.877 71.9875 305.212 72.9334V72.9334C305.935 74.9734 303.656 76.7928 301.855 75.5926L301.39 75.2829C300.572 74.7375 299.506 74.7375 298.688 75.2829L298.223 75.5926C296.422 76.7928 294.143 74.9734 294.866 72.9334V72.9334C295.201 71.9875 294.853 70.9261 294.018 70.3696V70.3696C292.214 69.167 293.065 66.3547 295.234 66.3547H295.574C296.546 66.3547 297.418 65.7273 297.742 64.8112V64.8112Z" fill="url(#paint3_linear_1_79)" shape-rendering="crispEdges"/>
</g>
<g opacity="0.8" filter="url(#filter4_d_1_79)">
<path d="M285.078 41.5761C285.837 39.4334 288.912 39.4334 289.671 41.5761V41.5761C289.996 42.4922 290.868 43.1196 291.84 43.1196H292.18C294.348 43.1196 295.2 45.9319 293.395 47.1344V47.1344C292.56 47.691 292.213 48.7524 292.548 49.6983V49.6983C293.271 51.7382 290.992 53.5577 289.191 52.3574L288.726 52.0478C287.908 51.5024 286.842 51.5024 286.023 52.0478L285.559 52.3574C283.758 53.5577 281.479 51.7382 282.201 49.6983V49.6983C282.536 48.7524 282.189 47.691 281.354 47.1344V47.1344C279.55 45.9319 280.401 43.1196 282.57 43.1196H282.91C283.882 43.1196 284.754 42.4922 285.078 41.5761V41.5761Z" fill="url(#paint4_linear_1_79)" shape-rendering="crispEdges"/>
</g>
<g opacity="0.8" filter="url(#filter5_d_1_79)">
<path d="M280.196 99.9033C280.955 97.7606 284.031 97.7606 284.789 99.9033V99.9033C285.114 100.819 285.986 101.447 286.958 101.447H287.298C289.466 101.447 290.318 104.259 288.514 105.462V105.462C287.678 106.018 287.331 107.08 287.666 108.026V108.026C288.389 110.065 286.11 111.885 284.309 110.685L283.844 110.375C283.026 109.83 281.96 109.83 281.142 110.375L280.677 110.685C278.876 111.885 276.597 110.065 277.319 108.026V108.026C277.654 107.08 277.307 106.018 276.472 105.462V105.462C274.668 104.259 275.519 101.447 277.688 101.447H278.028C279 101.447 279.872 100.819 280.196 99.9033V99.9033Z" fill="url(#paint5_linear_1_79)" shape-rendering="crispEdges"/>
</g>
<g opacity="0.8" filter="url(#filter6_d_1_79)">
<path d="M267.532 76.6682C268.291 74.5255 271.366 74.5255 272.125 76.6682V76.6682C272.45 77.5843 273.322 78.2117 274.293 78.2117H274.634C276.802 78.2117 277.654 81.024 275.849 82.2265V82.2265C275.014 82.7831 274.667 83.8445 275.002 84.7904V84.7904C275.725 86.8304 273.445 88.6498 271.645 87.4496L271.18 87.1399C270.362 86.5945 269.296 86.5945 268.477 87.1399L268.013 87.4495C266.212 88.6498 263.933 86.8304 264.655 84.7904V84.7904C264.99 83.8445 264.643 82.7831 263.808 82.2265V82.2265C262.004 81.024 262.855 78.2117 265.023 78.2117H265.364C266.336 78.2117 267.208 77.5843 267.532 76.6682V76.6682Z" fill="url(#paint6_linear_1_79)" shape-rendering="crispEdges"/>
</g>
<g opacity="0.8" filter="url(#filter7_d_1_79)">
<path d="M132.308 32.2257C133.067 30.083 136.142 30.083 136.901 32.2257V32.2257C137.226 33.1418 138.098 33.7692 139.069 33.7692H139.41C141.578 33.7692 142.43 36.5815 140.625 37.784V37.784C139.79 38.3406 139.443 39.402 139.778 40.3479V40.3479C140.501 42.3878 138.221 44.2073 136.421 43.007L135.956 42.6974C135.138 42.152 134.072 42.152 133.253 42.6974L132.789 43.007C130.988 44.2072 128.709 42.3878 129.431 40.3479V40.3479C129.766 39.402 129.419 38.3406 128.584 37.784V37.784C126.78 36.5815 127.631 33.7692 129.799 33.7692H130.14C131.112 33.7692 131.984 33.1418 132.308 32.2257V32.2257Z" fill="url(#paint7_linear_1_79)" shape-rendering="crispEdges"/>
</g>
<g opacity="0.8" filter="url(#filter8_d_1_79)">
<path d="M119.644 8.99057C120.403 6.84783 123.478 6.84783 124.237 8.99057V8.99057C124.562 9.90667 125.433 10.5341 126.405 10.5341H126.746C128.914 10.5341 129.765 13.3464 127.961 14.5489V14.5489C127.126 15.1055 126.779 16.1669 127.114 17.1128V17.1128C127.837 19.1527 125.557 20.9721 123.756 19.7719L123.292 19.4622C122.474 18.9168 121.408 18.9168 120.589 19.4622L120.125 19.7719C118.324 20.9721 116.045 19.1527 116.767 17.1128V17.1128C117.102 16.1669 116.755 15.1055 115.92 14.5489V14.5489C114.116 13.3464 114.967 10.5341 117.135 10.5341H117.476C118.448 10.5341 119.319 9.90667 119.644 8.99057V8.99057Z" fill="url(#paint8_linear_1_79)" shape-rendering="crispEdges"/>
</g>
<g opacity="0.8" filter="url(#filter9_d_1_79)">
<path d="M119.775 64.8112C120.534 62.6685 123.609 62.6685 124.368 64.8112V64.8112C124.693 65.7273 125.565 66.3547 126.537 66.3547H126.877C129.045 66.3547 129.897 69.167 128.092 70.3696V70.3696C127.257 70.9261 126.91 71.9875 127.245 72.9334V72.9334C127.968 74.9734 125.689 76.7928 123.888 75.5926L123.423 75.2829C122.605 74.7375 121.539 74.7375 120.721 75.2829L120.256 75.5926C118.455 76.7928 116.176 74.9734 116.898 72.9334V72.9334C117.233 71.9875 116.886 70.9261 116.051 70.3696V70.3696C114.247 69.167 115.098 66.3547 117.267 66.3547H117.607C118.579 66.3547 119.451 65.7273 119.775 64.8112V64.8112Z" fill="url(#paint9_linear_1_79)" shape-rendering="crispEdges"/>
</g>
<g opacity="0.8" filter="url(#filter10_d_1_79)">
<path d="M107.111 41.5761C107.87 39.4334 110.945 39.4334 111.704 41.5761V41.5761C112.029 42.4922 112.901 43.1196 113.872 43.1196H114.213C116.381 43.1196 117.233 45.9319 115.428 47.1344V47.1344C114.593 47.691 114.246 48.7524 114.581 49.6983V49.6983C115.304 51.7382 113.024 53.5577 111.224 52.3574L110.759 52.0478C109.941 51.5024 108.875 51.5024 108.056 52.0478L107.592 52.3574C105.791 53.5577 103.512 51.7382 104.234 49.6983V49.6983C104.569 48.7524 104.222 47.691 103.387 47.1344V47.1344C101.583 45.9319 102.434 43.1196 104.602 43.1196H104.943C105.915 43.1196 106.787 42.4922 107.111 41.5761V41.5761Z" fill="url(#paint10_linear_1_79)" shape-rendering="crispEdges"/>
</g>
<g opacity="0.8" filter="url(#filter11_d_1_79)">
<path d="M264.454 27.0587C263.738 24.8535 260.618 24.8535 259.901 27.0587V27.0587C259.581 28.0449 258.662 28.7126 257.625 28.7126V28.7126C255.306 28.7126 254.342 31.6798 256.218 33.0427V33.0427C257.057 33.6522 257.408 34.7325 257.087 35.7188V35.7188C256.371 37.924 258.895 39.7577 260.771 38.3948V38.3948C261.61 37.7853 262.746 37.7853 263.585 38.3948V38.3948C265.46 39.7577 267.984 37.924 267.268 35.7188V35.7188C266.947 34.7325 267.298 33.6522 268.137 33.0427V33.0427C270.013 31.6798 269.049 28.7126 266.73 28.7126V28.7126C265.694 28.7126 264.775 28.0449 264.454 27.0587V27.0587Z" fill="url(#paint11_linear_1_79)" shape-rendering="crispEdges"/>
</g>
<g opacity="0.8" filter="url(#filter12_d_1_79)">
<path d="M294.501 18.7507C293.743 16.6492 290.77 16.6492 290.012 18.7507L289.978 18.8452C289.657 19.7344 288.813 20.3269 287.867 20.3269L287.461 20.3269C285.351 20.3269 284.534 23.0709 286.299 24.2254V24.2254C287.122 24.7637 287.464 25.8076 287.13 26.7328V26.7328C286.416 28.7114 288.615 30.5024 290.375 29.3511L290.935 28.985C291.738 28.4601 292.775 28.4601 293.578 28.985L294.138 29.3511C295.899 30.5024 298.097 28.7114 297.383 26.7328V26.7328C297.049 25.8076 297.391 24.7637 298.214 24.2254V24.2254C299.98 23.0709 299.162 20.3269 297.053 20.3269L296.646 20.3269C295.7 20.3269 294.856 19.7344 294.535 18.8452L294.501 18.7507Z" fill="url(#paint12_linear_1_79)" shape-rendering="crispEdges"/>
</g>
<g opacity="0.8" filter="url(#filter13_d_1_79)">
<path d="M336.088 84.6219C335.258 82.2992 331.973 82.2992 331.143 84.6219L331.109 84.7163C330.756 85.7044 329.82 86.364 328.77 86.364H328.363C326.021 86.364 325.108 89.405 327.062 90.6954V90.6954C327.969 91.2947 328.346 92.4467 327.98 93.4707V93.4707C327.194 95.6704 329.645 97.6461 331.594 96.3587L332.152 95.9901C333.04 95.4042 334.191 95.4042 335.078 95.9901L335.636 96.3587C337.585 97.6461 340.037 95.6704 339.25 93.4707V93.4707C338.884 92.4467 339.261 91.2947 340.169 90.6954V90.6954C342.122 89.405 341.209 86.364 338.867 86.364H338.46C337.411 86.364 336.475 85.7044 336.121 84.7163L336.088 84.6219Z" fill="url(#paint13_linear_1_79)" shape-rendering="crispEdges"/>
</g>
<g opacity="0.8" filter="url(#filter14_d_1_79)">
<path d="M331.04 58.7772C330.164 56.5705 327.04 56.5705 326.164 58.7772L326.088 58.9687C325.737 59.8522 324.883 60.4322 323.932 60.4322L323.127 60.4322C320.995 60.4322 320.222 63.2446 322.055 64.3345V64.3345C322.942 64.8614 323.314 65.9544 322.933 66.9128L322.897 67.0036C322.118 68.9667 324.269 70.8019 326.085 69.7226L327.238 69.0371C328.079 68.5373 329.125 68.5373 329.966 69.0371L331.119 69.7226C332.935 70.8019 335.086 68.9667 334.307 67.0036L334.271 66.9128C333.89 65.9544 334.262 64.8614 335.149 64.3345V64.3345C336.982 63.2446 336.209 60.4322 334.077 60.4322L333.272 60.4322C332.321 60.4322 331.467 59.8522 331.116 58.9687L331.04 58.7772Z" fill="url(#paint14_linear_1_79)" shape-rendering="crispEdges"/>
</g>
<g opacity="0.8" filter="url(#filter15_d_1_79)">
<path d="M373.652 63.7903C372.775 61.5837 369.652 61.5837 368.776 63.7903L368.7 63.9819C368.349 64.8653 367.495 65.4453 366.544 65.4453L365.739 65.4453C363.606 65.4453 362.834 68.2578 364.667 69.3476V69.3476C365.553 69.8746 365.926 70.9675 365.545 71.926L365.509 72.0167C364.729 73.9798 366.881 75.8151 368.696 74.7358L369.85 74.0503C370.69 73.5505 371.737 73.5505 372.578 74.0503L373.731 74.7358C375.547 75.8151 377.698 73.9798 376.919 72.0167L376.883 71.926C376.502 70.9675 376.874 69.8746 377.761 69.3476V69.3476C379.594 68.2578 378.821 65.4453 376.688 65.4453L375.884 65.4453C374.933 65.4453 374.079 64.8653 373.728 63.9819L373.652 63.7903Z" fill="url(#paint15_linear_1_79)" shape-rendering="crispEdges"/>
</g>
<g opacity="0.8" filter="url(#filter16_d_1_79)">
<path d="M338.697 38.7246C339.573 36.5179 342.697 36.5179 343.573 38.7245L343.649 38.9161C344 39.7996 344.854 40.3795 345.805 40.3795L346.609 40.3795C348.742 40.3795 349.515 43.192 347.682 44.2818V44.2818C346.795 44.8088 346.423 45.9017 346.804 46.8602L346.84 46.9509C347.619 48.914 345.468 50.7493 343.652 49.67L342.499 48.9845C341.658 48.4847 340.611 48.4847 339.771 48.9845L338.618 49.67C336.802 50.7493 334.65 48.914 335.43 46.9509L335.466 46.8602C335.847 45.9017 335.474 44.8088 334.588 44.2818V44.2818C332.755 43.192 333.527 40.3795 335.66 40.3795L336.465 40.3795C337.416 40.3795 338.27 39.7996 338.621 38.9161L338.697 38.7246Z" fill="url(#paint16_linear_1_79)" shape-rendering="crispEdges"/>
</g>
<g opacity="0.8" filter="url(#filter17_d_1_79)">
<path d="M67.8837 84.6219C67.0536 82.2992 63.7688 82.2992 62.9386 84.6219L62.9049 84.7163C62.5517 85.7044 61.6156 86.364 60.5662 86.364H60.1589C57.8175 86.364 56.9038 89.405 58.8576 90.6954V90.6954C59.765 91.2947 60.1419 92.4467 59.7759 93.4707V93.4707C58.9898 95.6704 61.4412 97.6461 63.3904 96.3587L63.9484 95.9901C64.8356 95.4042 65.9868 95.4042 66.874 95.9901L67.432 96.3587C69.3811 97.6461 71.8326 95.6704 71.0464 93.4707V93.4707C70.6804 92.4467 71.0574 91.2947 71.9648 90.6954V90.6954C73.9185 89.405 73.0049 86.364 70.6635 86.364H70.2561C69.2068 86.364 68.2706 85.7044 67.9175 84.7163L67.8837 84.6219Z" fill="url(#paint17_linear_1_79)" shape-rendering="crispEdges"/>
</g>
<g opacity="0.8" filter="url(#filter18_d_1_79)">
<path d="M20.2587 84.6219C19.4286 82.2992 16.1438 82.2992 15.3136 84.6219L15.2799 84.7163C14.9267 85.7044 13.9906 86.364 12.9412 86.364H12.5339C10.1925 86.364 9.27884 89.405 11.2326 90.6954V90.6954C12.14 91.2947 12.5169 92.4467 12.1509 93.4707V93.4707C11.3648 95.6704 13.8162 97.6461 15.7654 96.3587L16.3234 95.9901C17.2106 95.4042 18.3618 95.4042 19.249 95.9901L19.807 96.3587C21.7561 97.6461 24.2076 95.6704 23.4214 93.4707V93.4707C23.0554 92.4467 23.4324 91.2947 24.3398 90.6954V90.6954C26.2935 89.405 25.3799 86.364 23.0385 86.364H22.6311C21.5818 86.364 20.6456 85.7044 20.2925 84.7163L20.2587 84.6219Z" fill="url(#paint18_linear_1_79)" shape-rendering="crispEdges"/>
</g>
<g opacity="0.8" filter="url(#filter19_d_1_79)">
<path d="M82.8886 41.2311C82.0123 39.0245 78.889 39.0245 78.0127 41.2311L77.9366 41.4227C77.5858 42.3061 76.7314 42.8861 75.7808 42.8861L74.9761 42.8861C72.8433 42.8861 72.0705 45.6986 73.9038 46.7884V46.7884C74.7903 47.3154 75.1625 48.4083 74.7819 49.3667L74.7458 49.4575C73.9662 51.4206 76.1177 53.2559 77.9333 52.1766L79.0864 51.4911C79.9273 50.9913 80.9741 50.9913 81.8149 51.4911L82.968 52.1766C84.7837 53.2559 86.9351 51.4206 86.1555 49.4575L86.1195 49.3667C85.7388 48.4083 86.111 47.3154 86.9975 46.7884V46.7884C88.8309 45.6986 88.0581 42.8861 85.9252 42.8861L85.1205 42.8861C84.1699 42.8861 83.3155 42.3061 82.9647 41.4227L82.8886 41.2311Z" fill="url(#paint19_linear_1_79)" shape-rendering="crispEdges"/>
</g>
<g opacity="0.8" filter="url(#filter20_d_1_79)">
<path d="M42.886 59.5561C43.7161 57.2334 47.001 57.2334 47.8311 59.5561L47.8648 59.6505C48.218 60.6386 49.1541 61.2982 50.2035 61.2982H50.6108C52.9522 61.2982 53.8659 64.3392 51.9122 65.6296V65.6296C51.0048 66.2289 50.6278 67.3809 50.9938 68.4049V68.4049C51.78 70.6046 49.3285 72.5803 47.3793 71.2929L46.8213 70.9243C45.9342 70.3384 44.7829 70.3384 43.8958 70.9243L43.3377 71.2929C41.3886 72.5803 38.9371 70.6046 39.7233 68.4049V68.4049C40.0893 67.3809 39.7123 66.2289 38.8049 65.6296V65.6296C36.8512 64.3392 37.7648 61.2982 40.1062 61.2982H40.5136C41.5629 61.2982 42.4991 60.6386 42.8523 59.6505L42.886 59.5561Z" fill="url(#paint20_linear_1_79)" shape-rendering="crispEdges"/>
</g>
<g opacity="0.8" filter="url(#filter21_d_1_79)">
<path d="M105.087 89.8204C104.48 87.7447 101.54 87.7447 100.933 89.8204V89.8204C100.663 90.743 99.8168 91.3771 98.8555 91.3771H98.7619C96.6032 91.3771 95.6444 94.0913 97.3241 95.4472L97.6993 95.7501C98.4338 96.343 98.7397 97.3195 98.4748 98.2256L98.2887 98.8618C97.703 100.865 100.048 102.428 101.672 101.117V101.117C102.452 100.487 103.567 100.487 104.348 101.117V101.117C105.972 102.428 108.317 100.865 107.731 98.8618L107.545 98.2256C107.28 97.3195 107.586 96.343 108.32 95.7501L108.696 95.4472C110.375 94.0913 109.416 91.3771 107.258 91.3771H107.164C106.203 91.3771 105.357 90.743 105.087 89.8204V89.8204Z" fill="url(#paint21_linear_1_79)" shape-rendering="crispEdges"/>
</g>
<g opacity="0.8" filter="url(#filter22_d_1_79)">
<path d="M92.5258 66.4634C91.8809 64.4787 89.0731 64.4787 88.4282 66.4634V66.4634C88.1398 67.351 87.3127 67.9519 86.3794 67.9519V67.9519C84.2926 67.9519 83.4249 70.6223 85.1132 71.8489V71.8489C85.8682 72.3975 86.1842 73.3698 85.8958 74.2574V74.2574C85.2509 76.2421 87.5225 77.8925 89.2108 76.6659V76.6659C89.9658 76.1173 90.9882 76.1173 91.7432 76.6659V76.6659C93.4315 77.8925 95.703 76.2421 95.0582 74.2574V74.2574C94.7698 73.3698 95.0857 72.3975 95.8407 71.8489V71.8489C97.529 70.6223 96.6614 67.9519 94.5745 67.9519V67.9519C93.6413 67.9519 92.8141 67.351 92.5258 66.4634V66.4634Z" fill="url(#paint22_linear_1_79)" shape-rendering="crispEdges"/>
</g>
<g opacity="0.8" filter="url(#filter23_d_1_79)">
<path d="M172.719 108.578C173.478 106.435 176.553 106.435 177.312 108.578V108.578C177.636 109.494 178.508 110.121 179.48 110.121H179.821C181.989 110.121 182.84 112.934 181.036 114.136V114.136C180.201 114.693 179.854 115.754 180.189 116.7V116.7C180.911 118.74 178.632 120.559 176.831 119.359L176.367 119.05C175.548 118.504 174.482 118.504 173.664 119.05L173.199 119.359C171.399 120.559 169.119 118.74 169.842 116.7V116.7C170.177 115.754 169.83 114.693 168.995 114.136V114.136C167.19 112.934 168.042 110.121 170.21 110.121H170.551C171.522 110.121 172.394 109.494 172.719 108.578V108.578Z" fill="url(#paint23_linear_1_79)" shape-rendering="crispEdges"/>
</g>
<g opacity="0.8" filter="url(#filter24_d_1_79)">
<path d="M162.587 26.7905C163.346 24.6477 166.421 24.6477 167.18 26.7905V26.7905C167.505 27.7066 168.377 28.334 169.349 28.334H169.689C171.857 28.334 172.709 31.1463 170.904 32.3488V32.3488C170.069 32.9054 169.722 33.9668 170.057 34.9127V34.9127C170.78 36.9526 168.501 38.772 166.7 37.5718L166.235 37.2622C165.417 36.7167 164.351 36.7167 163.532 37.2622L163.068 37.5718C161.267 38.772 158.988 36.9526 159.71 34.9127V34.9127C160.045 33.9668 159.698 32.9054 158.863 32.3488V32.3488C157.059 31.1463 157.91 28.334 160.078 28.334H160.419C161.391 28.334 162.263 27.7066 162.587 26.7905V26.7905Z" fill="url(#paint24_linear_1_79)" shape-rendering="crispEdges"/>
</g>
<g opacity="0.8" filter="url(#filter25_d_1_79)">
<path d="M152.962 91.8487C153.721 89.7059 156.797 89.7059 157.556 91.8487V91.8487C157.88 92.7648 158.752 93.3922 159.724 93.3922H160.064C162.233 93.3922 163.084 96.2045 161.28 97.407V97.407C160.445 97.9635 160.097 99.025 160.433 99.9709V99.9709C161.155 102.011 158.876 103.83 157.075 102.63L156.61 102.32C155.792 101.775 154.726 101.775 153.908 102.32L153.443 102.63C151.642 103.83 149.363 102.011 150.086 99.9709V99.9709C150.421 99.025 150.073 97.9635 149.238 97.407V97.407C147.434 96.2045 148.286 93.3922 150.454 93.3922H150.794C151.766 93.3922 152.638 92.7648 152.962 91.8487V91.8487Z" fill="url(#paint25_linear_1_79)" shape-rendering="crispEdges"/>
</g>
<defs>
<filter id="filter0_d_1_79" x="228.934" y="47.0655" width="34.0014" height="32.7719" filterUnits="userSpaceOnUse" color-interpolation-filters="sRGB">
<feFlood flood-opacity="0" result="BackgroundImageFix"/>
<feColorMatrix in="SourceAlpha" type="matrix" values="0 0 0 0 0 0 0 0 0 0 0 0 0 0 0 0 0 0 127 0" result="hardAlpha"/>
<feOffset dy="4"/>
<feGaussianBlur stdDeviation="5"/>
<feComposite in2="hardAlpha" operator="out"/>
<feColorMatrix type="matrix" values="0 0 0 0 0 0 0 0 0 0 0 0 0 0 0 0 0 0 0.15 0"/>
<feBlend mode="normal" in2="BackgroundImageFix" result="effect1_dropShadow_1_79"/>
<feBlend mode="normal" in="SourceGraphic" in2="effect1_dropShadow_1_79" result="shape"/>
</filter>
<filter id="filter1_d_1_79" x="149.459" y="7.06866" width="100.529" height="107.608" filterUnits="userSpaceOnUse" color-interpolation-filters="sRGB">
<feFlood flood-opacity="0" result="BackgroundImageFix"/>
<feColorMatrix in="SourceAlpha" type="matrix" values="0 0 0 0 0 0 0 0 0 0 0 0 0 0 0 0 0 0 127 0" result="hardAlpha"/>
<feOffset dy="4"/>
<feGaussianBlur stdDeviation="5"/>
<feComposite in2="hardAlpha" operator="out"/>
<feColorMatrix type="matrix" values="0 0 0 0 0 0 0 0 0 0 0 0 0 0 0 0 0 0 0.25 0"/>
<feBlend mode="normal" in2="BackgroundImageFix" result="effect1_dropShadow_1_79"/>
<feBlend mode="normal" in="SourceGraphic" in2="effect1_dropShadow_1_79" result="shape"/>
</filter>
<filter id="filter2_d_1_79" x="216.27" y="23.8304" width="34.0014" height="32.7719" filterUnits="userSpaceOnUse" color-interpolation-filters="sRGB">
<feFlood flood-opacity="0" result="BackgroundImageFix"/>
<feColorMatrix in="SourceAlpha" type="matrix" values="0 0 0 0 0 0 0 0 0 0 0 0 0 0 0 0 0 0 127 0" result="hardAlpha"/>
<feOffset dy="4"/>
<feGaussianBlur stdDeviation="5"/>
<feComposite in2="hardAlpha" operator="out"/>
<feColorMatrix type="matrix" values="0 0 0 0 0 0 0 0 0 0 0 0 0 0 0 0 0 0 0.15 0"/>
<feBlend mode="normal" in2="BackgroundImageFix" result="effect1_dropShadow_1_79"/>
<feBlend mode="normal" in="SourceGraphic" in2="effect1_dropShadow_1_79" result="shape"/>
</filter>
<filter id="filter3_d_1_79" x="283.038" y="57.2042" width="34.0014" height="32.7719" filterUnits="userSpaceOnUse" color-interpolation-filters="sRGB">
<feFlood flood-opacity="0" result="BackgroundImageFix"/>
<feColorMatrix in="SourceAlpha" type="matrix" values="0 0 0 0 0 0 0 0 0 0 0 0 0 0 0 0 0 0 127 0" result="hardAlpha"/>
<feOffset dy="4"/>
<feGaussianBlur stdDeviation="5"/>
<feComposite in2="hardAlpha" operator="out"/>
<feColorMatrix type="matrix" values="0 0 0 0 0 0 0 0 0 0 0 0 0 0 0 0 0 0 0.15 0"/>
<feBlend mode="normal" in2="BackgroundImageFix" result="effect1_dropShadow_1_79"/>
<feBlend mode="normal" in="SourceGraphic" in2="effect1_dropShadow_1_79" result="shape"/>
</filter>
<filter id="filter4_d_1_79" x="270.374" y="33.969" width="34.0014" height="32.7719" filterUnits="userSpaceOnUse" color-interpolation-filters="sRGB">
<feFlood flood-opacity="0" result="BackgroundImageFix"/>
<feColorMatrix in="SourceAlpha" type="matrix" values="0 0 0 0 0 0 0 0 0 0 0 0 0 0 0 0 0 0 127 0" result="hardAlpha"/>
<feOffset dy="4"/>
<feGaussianBlur stdDeviation="5"/>
<feComposite in2="hardAlpha" operator="out"/>
<feColorMatrix type="matrix" values="0 0 0 0 0 0 0 0 0 0 0 0 0 0 0 0 0 0 0.15 0"/>
<feBlend mode="normal" in2="BackgroundImageFix" result="effect1_dropShadow_1_79"/>
<feBlend mode="normal" in="SourceGraphic" in2="effect1_dropShadow_1_79" result="shape"/>
</filter>
<filter id="filter5_d_1_79" x="265.492" y="92.2963" width="34.0014" height="32.7719" filterUnits="userSpaceOnUse" color-interpolation-filters="sRGB">
<feFlood flood-opacity="0" result="BackgroundImageFix"/>
<feColorMatrix in="SourceAlpha" type="matrix" values="0 0 0 0 0 0 0 0 0 0 0 0 0 0 0 0 0 0 127 0" result="hardAlpha"/>
<feOffset dy="4"/>
<feGaussianBlur stdDeviation="5"/>
<feComposite in2="hardAlpha" operator="out"/>
<feColorMatrix type="matrix" values="0 0 0 0 0 0 0 0 0 0 0 0 0 0 0 0 0 0 0.15 0"/>
<feBlend mode="normal" in2="BackgroundImageFix" result="effect1_dropShadow_1_79"/>
<feBlend mode="normal" in="SourceGraphic" in2="effect1_dropShadow_1_79" result="shape"/>
</filter>
<filter id="filter6_d_1_79" x="252.828" y="69.0612" width="34.0014" height="32.7719" filterUnits="userSpaceOnUse" color-interpolation-filters="sRGB">
<feFlood flood-opacity="0" result="BackgroundImageFix"/>
<feColorMatrix in="SourceAlpha" type="matrix" values="0 0 0 0 0 0 0 0 0 0 0 0 0 0 0 0 0 0 127 0" result="hardAlpha"/>
<feOffset dy="4"/>
<feGaussianBlur stdDeviation="5"/>
<feComposite in2="hardAlpha" operator="out"/>
<feColorMatrix type="matrix" values="0 0 0 0 0 0 0 0 0 0 0 0 0 0 0 0 0 0 0.15 0"/>
<feBlend mode="normal" in2="BackgroundImageFix" result="effect1_dropShadow_1_79"/>
<feBlend mode="normal" in="SourceGraphic" in2="effect1_dropShadow_1_79" result="shape"/>
</filter>
<filter id="filter7_d_1_79" x="117.604" y="24.6186" width="34.0014" height="32.7719" filterUnits="userSpaceOnUse" color-interpolation-filters="sRGB">
<feFlood flood-opacity="0" result="BackgroundImageFix"/>
<feColorMatrix in="SourceAlpha" type="matrix" values="0 0 0 0 0 0 0 0 0 0 0 0 0 0 0 0 0 0 127 0" result="hardAlpha"/>
<feOffset dy="4"/>
<feGaussianBlur stdDeviation="5"/>
<feComposite in2="hardAlpha" operator="out"/>
<feColorMatrix type="matrix" values="0 0 0 0 0 0 0 0 0 0 0 0 0 0 0 0 0 0 0.15 0"/>
<feBlend mode="normal" in2="BackgroundImageFix" result="effect1_dropShadow_1_79"/>
<feBlend mode="normal" in="SourceGraphic" in2="effect1_dropShadow_1_79" result="shape"/>
</filter>
<filter id="filter8_d_1_79" x="104.94" y="1.38352" width="34.0014" height="32.7719" filterUnits="userSpaceOnUse" color-interpolation-filters="sRGB">
<feFlood flood-opacity="0" result="BackgroundImageFix"/>
<feColorMatrix in="SourceAlpha" type="matrix" values="0 0 0 0 0 0 0 0 0 0 0 0 0 0 0 0 0 0 127 0" result="hardAlpha"/>
<feOffset dy="4"/>
<feGaussianBlur stdDeviation="5"/>
<feComposite in2="hardAlpha" operator="out"/>
<feColorMatrix type="matrix" values="0 0 0 0 0 0 0 0 0 0 0 0 0 0 0 0 0 0 0.15 0"/>
<feBlend mode="normal" in2="BackgroundImageFix" result="effect1_dropShadow_1_79"/>
<feBlend mode="normal" in="SourceGraphic" in2="effect1_dropShadow_1_79" result="shape"/>
</filter>
<filter id="filter9_d_1_79" x="105.071" y="57.2042" width="34.0014" height="32.7719" filterUnits="userSpaceOnUse" color-interpolation-filters="sRGB">
<feFlood flood-opacity="0" result="BackgroundImageFix"/>
<feColorMatrix in="SourceAlpha" type="matrix" values="0 0 0 0 0 0 0 0 0 0 0 0 0 0 0 0 0 0 127 0" result="hardAlpha"/>
<feOffset dy="4"/>
<feGaussianBlur stdDeviation="5"/>
<feComposite in2="hardAlpha" operator="out"/>
<feColorMatrix type="matrix" values="0 0 0 0 0 0 0 0 0 0 0 0 0 0 0 0 0 0 0.15 0"/>
<feBlend mode="normal" in2="BackgroundImageFix" result="effect1_dropShadow_1_79"/>
<feBlend mode="normal" in="SourceGraphic" in2="effect1_dropShadow_1_79" result="shape"/>
</filter>
<filter id="filter10_d_1_79" x="92.407" y="33.969" width="34.0014" height="32.7719" filterUnits="userSpaceOnUse" color-interpolation-filters="sRGB">
<feFlood flood-opacity="0" result="BackgroundImageFix"/>
<feColorMatrix in="SourceAlpha" type="matrix" values="0 0 0 0 0 0 0 0 0 0 0 0 0 0 0 0 0 0 127 0" result="hardAlpha"/>
<feOffset dy="4"/>
<feGaussianBlur stdDeviation="5"/>
<feComposite in2="hardAlpha" operator="out"/>
<feColorMatrix type="matrix" values="0 0 0 0 0 0 0 0 0 0 0 0 0 0 0 0 0 0 0.15 0"/>
<feBlend mode="normal" in2="BackgroundImageFix" result="effect1_dropShadow_1_79"/>
<feBlend mode="normal" in="SourceGraphic" in2="effect1_dropShadow_1_79" result="shape"/>
</filter>
<filter id="filter11_d_1_79" x="245.227" y="19.4048" width="33.902" height="33.458" filterUnits="userSpaceOnUse" color-interpolation-filters="sRGB">
<feFlood flood-opacity="0" result="BackgroundImageFix"/>
<feColorMatrix in="SourceAlpha" type="matrix" values="0 0 0 0 0 0 0 0 0 0 0 0 0 0 0 0 0 0 127 0" result="hardAlpha"/>
<feOffset dy="4"/>
<feGaussianBlur stdDeviation="5"/>
<feComposite in2="hardAlpha" operator="out"/>
<feColorMatrix type="matrix" values="0 0 0 0 0 0 0 0 0 0 0 0 0 0 0 0 0 0 0.15 0"/>
<feBlend mode="normal" in2="BackgroundImageFix" result="effect1_dropShadow_1_79"/>
<feBlend mode="normal" in="SourceGraphic" in2="effect1_dropShadow_1_79" result="shape"/>
</filter>
<filter id="filter12_d_1_79" x="275.334" y="11.1746" width="33.8442" height="32.5385" filterUnits="userSpaceOnUse" color-interpolation-filters="sRGB">
<feFlood flood-opacity="0" result="BackgroundImageFix"/>
<feColorMatrix in="SourceAlpha" type="matrix" values="0 0 0 0 0 0 0 0 0 0 0 0 0 0 0 0 0 0 127 0" result="hardAlpha"/>
<feOffset dy="4"/>
<feGaussianBlur stdDeviation="5"/>
<feComposite in2="hardAlpha" operator="out"/>
<feColorMatrix type="matrix" values="0 0 0 0 0 0 0 0 0 0 0 0 0 0 0 0 0 0 0.15 0"/>
<feBlend mode="normal" in2="BackgroundImageFix" result="effect1_dropShadow_1_79"/>
<feBlend mode="normal" in="SourceGraphic" in2="effect1_dropShadow_1_79" result="shape"/>
</filter>
<filter id="filter13_d_1_79" x="315.997" y="76.8799" width="35.2356" height="33.8871" filterUnits="userSpaceOnUse" color-interpolation-filters="sRGB">
<feFlood flood-opacity="0" result="BackgroundImageFix"/>
<feColorMatrix in="SourceAlpha" type="matrix" values="0 0 0 0 0 0 0 0 0 0 0 0 0 0 0 0 0 0 127 0" result="hardAlpha"/>
<feOffset dy="4"/>
<feGaussianBlur stdDeviation="5"/>
<feComposite in2="hardAlpha" operator="out"/>
<feColorMatrix type="matrix" values="0 0 0 0 0 0 0 0 0 0 0 0 0 0 0 0 0 0 0.15 0"/>
<feBlend mode="normal" in2="BackgroundImageFix" result="effect1_dropShadow_1_79"/>
<feBlend mode="normal" in="SourceGraphic" in2="effect1_dropShadow_1_79" result="shape"/>
</filter>
<filter id="filter14_d_1_79" x="311.025" y="51.1222" width="35.1533" height="32.9207" filterUnits="userSpaceOnUse" color-interpolation-filters="sRGB">
<feFlood flood-opacity="0" result="BackgroundImageFix"/>
<feColorMatrix in="SourceAlpha" type="matrix" values="0 0 0 0 0 0 0 0 0 0 0 0 0 0 0 0 0 0 127 0" result="hardAlpha"/>
<feOffset dy="4"/>
<feGaussianBlur stdDeviation="5"/>
<feComposite in2="hardAlpha" operator="out"/>
<feColorMatrix type="matrix" values="0 0 0 0 0 0 0 0 0 0 0 0 0 0 0 0 0 0 0.15 0"/>
<feBlend mode="normal" in2="BackgroundImageFix" result="effect1_dropShadow_1_79"/>
<feBlend mode="normal" in="SourceGraphic" in2="effect1_dropShadow_1_79" result="shape"/>
</filter>
<filter id="filter15_d_1_79" x="353.637" y="56.1353" width="35.1533" height="32.9207" filterUnits="userSpaceOnUse" color-interpolation-filters="sRGB">
<feFlood flood-opacity="0" result="BackgroundImageFix"/>
<feColorMatrix in="SourceAlpha" type="matrix" values="0 0 0 0 0 0 0 0 0 0 0 0 0 0 0 0 0 0 127 0" result="hardAlpha"/>
<feOffset dy="4"/>
<feGaussianBlur stdDeviation="5"/>
<feComposite in2="hardAlpha" operator="out"/>
<feColorMatrix type="matrix" values="0 0 0 0 0 0 0 0 0 0 0 0 0 0 0 0 0 0 0.15 0"/>
<feBlend mode="normal" in2="BackgroundImageFix" result="effect1_dropShadow_1_79"/>
<feBlend mode="normal" in="SourceGraphic" in2="effect1_dropShadow_1_79" result="shape"/>
</filter>
<filter id="filter16_d_1_79" x="323.558" y="31.0696" width="35.1533" height="32.9207" filterUnits="userSpaceOnUse" color-interpolation-filters="sRGB">
<feFlood flood-opacity="0" result="BackgroundImageFix"/>
<feColorMatrix in="SourceAlpha" type="matrix" values="0 0 0 0 0 0 0 0 0 0 0 0 0 0 0 0 0 0 127 0" result="hardAlpha"/>
<feOffset dy="4"/>
<feGaussianBlur stdDeviation="5"/>
<feComposite in2="hardAlpha" operator="out"/>
<feColorMatrix type="matrix" values="0 0 0 0 0 0 0 0 0 0 0 0 0 0 0 0 0 0 0.15 0"/>
<feBlend mode="normal" in2="BackgroundImageFix" result="effect1_dropShadow_1_79"/>
<feBlend mode="normal" in="SourceGraphic" in2="effect1_dropShadow_1_79" result="shape"/>
</filter>
<filter id="filter17_d_1_79" x="47.7934" y="76.8799" width="35.2356" height="33.8871" filterUnits="userSpaceOnUse" color-interpolation-filters="sRGB">
<feFlood flood-opacity="0" result="BackgroundImageFix"/>
<feColorMatrix in="SourceAlpha" type="matrix" values="0 0 0 0 0 0 0 0 0 0 0 0 0 0 0 0 0 0 127 0" result="hardAlpha"/>
<feOffset dy="4"/>
<feGaussianBlur stdDeviation="5"/>
<feComposite in2="hardAlpha" operator="out"/>
<feColorMatrix type="matrix" values="0 0 0 0 0 0 0 0 0 0 0 0 0 0 0 0 0 0 0.15 0"/>
<feBlend mode="normal" in2="BackgroundImageFix" result="effect1_dropShadow_1_79"/>
<feBlend mode="normal" in="SourceGraphic" in2="effect1_dropShadow_1_79" result="shape"/>
</filter>
<filter id="filter18_d_1_79" x="0.168365" y="76.8799" width="35.2356" height="33.8871" filterUnits="userSpaceOnUse" color-interpolation-filters="sRGB">
<feFlood flood-opacity="0" result="BackgroundImageFix"/>
<feColorMatrix in="SourceAlpha" type="matrix" values="0 0 0 0 0 0 0 0 0 0 0 0 0 0 0 0 0 0 127 0" result="hardAlpha"/>
<feOffset dy="4"/>
<feGaussianBlur stdDeviation="5"/>
<feComposite in2="hardAlpha" operator="out"/>
<feColorMatrix type="matrix" values="0 0 0 0 0 0 0 0 0 0 0 0 0 0 0 0 0 0 0.15 0"/>
<feBlend mode="normal" in2="BackgroundImageFix" result="effect1_dropShadow_1_79"/>
<feBlend mode="normal" in="SourceGraphic" in2="effect1_dropShadow_1_79" result="shape"/>
</filter>
<filter id="filter19_d_1_79" x="62.874" y="33.5761" width="35.1533" height="32.9207" filterUnits="userSpaceOnUse" color-interpolation-filters="sRGB">
<feFlood flood-opacity="0" result="BackgroundImageFix"/>
<feColorMatrix in="SourceAlpha" type="matrix" values="0 0 0 0 0 0 0 0 0 0 0 0 0 0 0 0 0 0 127 0" result="hardAlpha"/>
<feOffset dy="4"/>
<feGaussianBlur stdDeviation="5"/>
<feComposite in2="hardAlpha" operator="out"/>
<feColorMatrix type="matrix" values="0 0 0 0 0 0 0 0 0 0 0 0 0 0 0 0 0 0 0.15 0"/>
<feBlend mode="normal" in2="BackgroundImageFix" result="effect1_dropShadow_1_79"/>
<feBlend mode="normal" in="SourceGraphic" in2="effect1_dropShadow_1_79" result="shape"/>
</filter>
<filter id="filter20_d_1_79" x="27.7407" y="51.8141" width="35.2356" height="33.887" filterUnits="userSpaceOnUse" color-interpolation-filters="sRGB">
<feFlood flood-opacity="0" result="BackgroundImageFix"/>
<feColorMatrix in="SourceAlpha" type="matrix" values="0 0 0 0 0 0 0 0 0 0 0 0 0 0 0 0 0 0 127 0" result="hardAlpha"/>
<feOffset dy="4"/>
<feGaussianBlur stdDeviation="5"/>
<feComposite in2="hardAlpha" operator="out"/>
<feColorMatrix type="matrix" values="0 0 0 0 0 0 0 0 0 0 0 0 0 0 0 0 0 0 0.15 0"/>
<feBlend mode="normal" in2="BackgroundImageFix" result="effect1_dropShadow_1_79"/>
<feBlend mode="normal" in="SourceGraphic" in2="effect1_dropShadow_1_79" result="shape"/>
</filter>
<filter id="filter21_d_1_79" x="86.4684" y="82.2636" width="33.0829" height="33.3363" filterUnits="userSpaceOnUse" color-interpolation-filters="sRGB">
<feFlood flood-opacity="0" result="BackgroundImageFix"/>
<feColorMatrix in="SourceAlpha" type="matrix" values="0 0 0 0 0 0 0 0 0 0 0 0 0 0 0 0 0 0 127 0" result="hardAlpha"/>
<feOffset dy="4"/>
<feGaussianBlur stdDeviation="5"/>
<feComposite in2="hardAlpha" operator="out"/>
<feColorMatrix type="matrix" values="0 0 0 0 0 0 0 0 0 0 0 0 0 0 0 0 0 0 0.15 0"/>
<feBlend mode="normal" in2="BackgroundImageFix" result="effect1_dropShadow_1_79"/>
<feBlend mode="normal" in="SourceGraphic" in2="effect1_dropShadow_1_79" result="shape"/>
</filter>
<filter id="filter22_d_1_79" x="74.2211" y="58.9749" width="32.5118" height="32.1122" filterUnits="userSpaceOnUse" color-interpolation-filters="sRGB">
<feFlood flood-opacity="0" result="BackgroundImageFix"/>
<feColorMatrix in="SourceAlpha" type="matrix" values="0 0 0 0 0 0 0 0 0 0 0 0 0 0 0 0 0 0 127 0" result="hardAlpha"/>
<feOffset dy="4"/>
<feGaussianBlur stdDeviation="5"/>
<feComposite in2="hardAlpha" operator="out"/>
<feColorMatrix type="matrix" values="0 0 0 0 0 0 0 0 0 0 0 0 0 0 0 0 0 0 0.15 0"/>
<feBlend mode="normal" in2="BackgroundImageFix" result="effect1_dropShadow_1_79"/>
<feBlend mode="normal" in="SourceGraphic" in2="effect1_dropShadow_1_79" result="shape"/>
</filter>
<filter id="filter23_d_1_79" x="158.015" y="100.971" width="34.0014" height="32.7719" filterUnits="userSpaceOnUse" color-interpolation-filters="sRGB">
<feFlood flood-opacity="0" result="BackgroundImageFix"/>
<feColorMatrix in="SourceAlpha" type="matrix" values="0 0 0 0 0 0 0 0 0 0 0 0 0 0 0 0 0 0 127 0" result="hardAlpha"/>
<feOffset dy="4"/>
<feGaussianBlur stdDeviation="5"/>
<feComposite in2="hardAlpha" operator="out"/>
<feColorMatrix type="matrix" values="0 0 0 0 0 0 0 0 0 0 0 0 0 0 0 0 0 0 0.15 0"/>
<feBlend mode="normal" in2="BackgroundImageFix" result="effect1_dropShadow_1_79"/>
<feBlend mode="normal" in="SourceGraphic" in2="effect1_dropShadow_1_79" result="shape"/>
</filter>
<filter id="filter24_d_1_79" x="147.883" y="19.1834" width="34.0014" height="32.7719" filterUnits="userSpaceOnUse" color-interpolation-filters="sRGB">
<feFlood flood-opacity="0" result="BackgroundImageFix"/>
<feColorMatrix in="SourceAlpha" type="matrix" values="0 0 0 0 0 0 0 0 0 0 0 0 0 0 0 0 0 0 127 0" result="hardAlpha"/>
<feOffset dy="4"/>
<feGaussianBlur stdDeviation="5"/>
<feComposite in2="hardAlpha" operator="out"/>
<feColorMatrix type="matrix" values="0 0 0 0 0 0 0 0 0 0 0 0 0 0 0 0 0 0 0.15 0"/>
<feBlend mode="normal" in2="BackgroundImageFix" result="effect1_dropShadow_1_79"/>
<feBlend mode="normal" in="SourceGraphic" in2="effect1_dropShadow_1_79" result="shape"/>
</filter>
<filter id="filter25_d_1_79" x="138.258" y="84.2416" width="34.0014" height="32.7719" filterUnits="userSpaceOnUse" color-interpolation-filters="sRGB">
<feFlood flood-opacity="0" result="BackgroundImageFix"/>
<feColorMatrix in="SourceAlpha" type="matrix" values="0 0 0 0 0 0 0 0 0 0 0 0 0 0 0 0 0 0 127 0" result="hardAlpha"/>
<feOffset dy="4"/>
<feGaussianBlur stdDeviation="5"/>
<feComposite in2="hardAlpha" operator="out"/>
<feColorMatrix type="matrix" values="0 0 0 0 0 0 0 0 0 0 0 0 0 0 0 0 0 0 0.15 0"/>
<feBlend mode="normal" in2="BackgroundImageFix" result="effect1_dropShadow_1_79"/>
<feBlend mode="normal" in="SourceGraphic" in2="effect1_dropShadow_1_79" result="shape"/>
</filter>
<linearGradient id="paint0_linear_1_79" x1="245.935" y1="48.1886" x2="245.935" y2="71.4236" gradientUnits="userSpaceOnUse">
<stop offset="0.317708" stop-color="#FFE55E"/>
<stop offset="1" stop-color="#FFE55E" stop-opacity="0"/>
</linearGradient>
<linearGradient id="paint1_linear_1_79" x1="227.185" y1="20.0952" x2="192.352" y2="93.6267" gradientUnits="userSpaceOnUse">
<stop stop-color="#FFF9C4"/>
<stop offset="0.848958" stop-color="#FFFCEE"/>
<stop offset="1" stop-color="#FFFADB"/>
</linearGradient>
<linearGradient id="paint2_linear_1_79" x1="233.271" y1="24.9535" x2="233.271" y2="48.1885" gradientUnits="userSpaceOnUse">
<stop offset="0.317708" stop-color="#FFE55E"/>
<stop offset="1" stop-color="#FFE55E" stop-opacity="0"/>
</linearGradient>
<linearGradient id="paint3_linear_1_79" x1="300.039" y1="58.3272" x2="300.039" y2="81.5623" gradientUnits="userSpaceOnUse">
<stop offset="0.317708" stop-color="#FFE55E"/>
<stop offset="1" stop-color="#FFE55E" stop-opacity="0"/>
</linearGradient>
<linearGradient id="paint4_linear_1_79" x1="287.375" y1="35.0921" x2="287.375" y2="58.3272" gradientUnits="userSpaceOnUse">
<stop offset="0.317708" stop-color="#FFE55E"/>
<stop offset="1" stop-color="#FFE55E" stop-opacity="0"/>
</linearGradient>
<linearGradient id="paint5_linear_1_79" x1="282.493" y1="93.4193" x2="282.493" y2="116.654" gradientUnits="userSpaceOnUse">
<stop offset="0.317708" stop-color="#FFE55E"/>
<stop offset="1" stop-color="#FFE55E" stop-opacity="0"/>
</linearGradient>
<linearGradient id="paint6_linear_1_79" x1="269.829" y1="70.1842" x2="269.829" y2="93.4193" gradientUnits="userSpaceOnUse">
<stop offset="0.317708" stop-color="#FFE55E"/>
<stop offset="1" stop-color="#FFE55E" stop-opacity="0"/>
</linearGradient>
<linearGradient id="paint7_linear_1_79" x1="134.605" y1="25.7417" x2="134.605" y2="48.9768" gradientUnits="userSpaceOnUse">
<stop offset="0.317708" stop-color="#FFE55E"/>
<stop offset="1" stop-color="#FFE55E" stop-opacity="0"/>
</linearGradient>
<linearGradient id="paint8_linear_1_79" x1="121.941" y1="2.50658" x2="121.941" y2="25.7416" gradientUnits="userSpaceOnUse">
<stop offset="0.317708" stop-color="#FFE55E"/>
<stop offset="1" stop-color="#FFE55E" stop-opacity="0"/>
</linearGradient>
<linearGradient id="paint9_linear_1_79" x1="122.072" y1="58.3272" x2="122.072" y2="81.5623" gradientUnits="userSpaceOnUse">
<stop offset="0.317708" stop-color="#FFE55E"/>
<stop offset="1" stop-color="#FFE55E" stop-opacity="0"/>
</linearGradient>
<linearGradient id="paint10_linear_1_79" x1="109.408" y1="35.0921" x2="109.408" y2="58.3272" gradientUnits="userSpaceOnUse">
<stop offset="0.317708" stop-color="#FFE55E"/>
<stop offset="1" stop-color="#FFE55E" stop-opacity="0"/>
</linearGradient>
<linearGradient id="paint11_linear_1_79" x1="262.178" y1="20.0526" x2="262.178" y2="45.1184" gradientUnits="userSpaceOnUse">
<stop offset="0.317708" stop-color="#FFE55E"/>
<stop offset="1" stop-color="#FFE55E" stop-opacity="0"/>
</linearGradient>
<linearGradient id="paint12_linear_1_79" x1="292.257" y1="12.5329" x2="292.257" y2="35.0921" gradientUnits="userSpaceOnUse">
<stop offset="0.317708" stop-color="#FFE55E"/>
<stop offset="1" stop-color="#FFE55E" stop-opacity="0"/>
</linearGradient>
<linearGradient id="paint13_linear_1_79" x1="333.615" y1="77.7039" x2="333.615" y2="102.77" gradientUnits="userSpaceOnUse">
<stop offset="0.317708" stop-color="#FFE55E"/>
<stop offset="1" stop-color="#FFE55E" stop-opacity="0"/>
</linearGradient>
<linearGradient id="paint14_linear_1_79" x1="328.602" y1="52.6382" x2="328.602" y2="75.1974" gradientUnits="userSpaceOnUse">
<stop offset="0.317708" stop-color="#FFE55E"/>
<stop offset="1" stop-color="#FFE55E" stop-opacity="0"/>
</linearGradient>
<linearGradient id="paint15_linear_1_79" x1="371.214" y1="57.6513" x2="371.214" y2="80.2105" gradientUnits="userSpaceOnUse">
<stop offset="0.317708" stop-color="#FFE55E"/>
<stop offset="1" stop-color="#FFE55E" stop-opacity="0"/>
</linearGradient>
<linearGradient id="paint16_linear_1_79" x1="341.135" y1="32.5855" x2="341.135" y2="55.1447" gradientUnits="userSpaceOnUse">
<stop offset="0.317708" stop-color="#FFE55E"/>
<stop offset="1" stop-color="#FFE55E" stop-opacity="0"/>
</linearGradient>
<linearGradient id="paint17_linear_1_79" x1="65.4112" y1="77.7039" x2="65.4112" y2="102.77" gradientUnits="userSpaceOnUse">
<stop offset="0.317708" stop-color="#FFE55E"/>
<stop offset="1" stop-color="#FFE55E" stop-opacity="0"/>
</linearGradient>
<linearGradient id="paint18_linear_1_79" x1="17.7862" y1="77.7039" x2="17.7862" y2="102.77" gradientUnits="userSpaceOnUse">
<stop offset="0.317708" stop-color="#FFE55E"/>
<stop offset="1" stop-color="#FFE55E" stop-opacity="0"/>
</linearGradient>
<linearGradient id="paint19_linear_1_79" x1="80.4507" y1="35.0921" x2="80.4507" y2="57.6513" gradientUnits="userSpaceOnUse">
<stop offset="0.317708" stop-color="#FFE55E"/>
<stop offset="1" stop-color="#FFE55E" stop-opacity="0"/>
</linearGradient>
<linearGradient id="paint20_linear_1_79" x1="45.3585" y1="52.6382" x2="45.3585" y2="77.7039" gradientUnits="userSpaceOnUse">
<stop offset="0.317708" stop-color="#FFE55E"/>
<stop offset="1" stop-color="#FFE55E" stop-opacity="0"/>
</linearGradient>
<linearGradient id="paint21_linear_1_79" x1="103.01" y1="82.7171" x2="103.01" y2="107.783" gradientUnits="userSpaceOnUse">
<stop offset="0.317708" stop-color="#FFE55E"/>
<stop offset="1" stop-color="#FFE55E" stop-opacity="0"/>
</linearGradient>
<linearGradient id="paint22_linear_1_79" x1="90.477" y1="60.1579" x2="90.477" y2="82.7171" gradientUnits="userSpaceOnUse">
<stop offset="0.317708" stop-color="#FFE55E"/>
<stop offset="1" stop-color="#FFE55E" stop-opacity="0"/>
</linearGradient>
<linearGradient id="paint23_linear_1_79" x1="175.015" y1="102.094" x2="175.015" y2="125.329" gradientUnits="userSpaceOnUse">
<stop offset="0.317708" stop-color="#FFE55E"/>
<stop offset="1" stop-color="#FFE55E" stop-opacity="0"/>
</linearGradient>
<linearGradient id="paint24_linear_1_79" x1="164.884" y1="20.3065" x2="164.884" y2="43.5415" gradientUnits="userSpaceOnUse">
<stop offset="0.317708" stop-color="#FFE55E"/>
<stop offset="1" stop-color="#FFE55E" stop-opacity="0"/>
</linearGradient>
<linearGradient id="paint25_linear_1_79" x1="155.259" y1="85.3647" x2="155.259" y2="108.6" gradientUnits="userSpaceOnUse">
<stop offset="0.317708" stop-color="#FFE55E"/>
<stop offset="1" stop-color="#FFE55E" stop-opacity="0"/>
</linearGradient>
</defs>
</svg>
