<svg width="120" height="110" viewBox="0 0 120 110" fill="none" xmlns="http://www.w3.org/2000/svg">
<g opacity="0.7" filter="url(#filter0_d_1_38)">
<path d="M99.7033 72.7868C98.1976 64.7461 91.4881 58.7097 83.4279 58.7097C77.0284 58.7097 71.4704 62.532 68.7025 68.1255C62.0374 68.8713 56.8558 74.8144 56.8558 82.0161C56.8558 89.7306 62.8124 96 70.1418 96H98.9283C105.04 96 110 90.7794 110 84.3468C110 78.1939 105.461 73.2063 99.7033 72.7868Z" fill="url(#paint0_linear_1_38)"/>
</g>
<path d="M46.9805 72.9133C46.7296 76.7879 51.4332 78.8899 53.9075 76.0089L54.6368 75.1598C56.3968 73.1106 55.6382 69.8408 53.1442 68.7263L52.4889 68.4334C49.9949 67.3189 47.233 69.0153 47.0545 71.7713L46.9805 72.9133Z" fill="url(#paint1_linear_1_38)"/>
<path d="M69.0334 18.2466C71.5078 15.3656 76.2113 17.4675 75.9604 21.3422L75.8865 22.4841C75.708 25.2401 72.946 26.9366 70.452 25.822L69.7967 25.5292C67.3027 24.4146 66.5442 21.1449 68.3042 19.0956L69.0334 18.2466Z" fill="url(#paint2_linear_1_38)"/>
<path d="M86.4538 62.4134C90.1522 62.6788 92.0207 58.047 89.2707 55.4306L88.3117 54.5182C86.2824 52.5874 83.0534 53.2585 82.0176 55.8262L81.6868 56.6461C80.651 59.2139 82.4349 62.1251 85.1641 62.3209L86.4538 62.4134Z" fill="url(#paint3_linear_1_38)"/>
<path d="M33.6704 38.8249C30.9204 36.2084 32.7888 31.5767 36.4873 31.842L37.777 31.9346C40.5062 32.1303 42.2901 35.0416 41.2542 37.6094L40.9235 38.4293C39.8876 40.997 36.6587 41.6681 34.6294 39.7373L33.6704 38.8249Z" fill="url(#paint4_linear_1_38)"/>
<path d="M69.0217 76.0121C71.4949 78.8942 76.1994 76.7942 75.9501 72.9195L75.8766 71.7776C75.6992 69.0216 72.938 67.324 70.4435 68.4375L69.7881 68.73C67.2937 69.8435 66.5337 73.1128 68.2929 75.1628L69.0217 76.0121Z" fill="url(#paint5_linear_1_38)"/>
<path d="M46.9909 21.336C46.7415 17.4613 51.4461 15.3613 53.9193 18.2434L54.6481 19.0927C56.4072 21.1427 55.6473 24.412 53.1528 25.5255L52.4975 25.818C50.003 26.9315 47.2417 25.2339 47.0644 22.4779L46.9909 21.336Z" fill="url(#paint6_linear_1_38)"/>
<path d="M88.931 37.714C91.5823 34.9882 89.5394 30.4234 85.8542 30.8389L84.5759 30.9831C81.8608 31.2892 80.1926 34.2701 81.323 36.796L81.6816 37.5973C82.812 40.1232 86.0579 40.6679 88.0113 38.6595L88.931 37.714Z" fill="url(#paint7_linear_1_38)"/>
<path d="M37.0868 63.4165C33.4016 63.8321 31.3587 59.2673 34.01 56.5414L34.9297 55.5959C36.8831 53.5876 40.129 54.1323 41.2594 56.6581L41.618 57.4595C42.7483 59.9853 41.0802 62.9662 38.365 63.2724L37.0868 63.4165Z" fill="url(#paint8_linear_1_38)"/>
<path d="M78.9824 71.0396C82.3095 72.7395 85.8042 69.0612 84.1891 65.5594L83.6656 64.4243C82.4958 61.8879 79.2994 61.3217 77.4053 63.3153L76.8503 63.8994C74.9562 65.8931 75.4941 69.2573 77.904 70.4886L78.9824 71.0396Z" fill="url(#paint9_linear_1_38)"/>
<path d="M38.7519 28.6961C37.1368 25.1943 40.6315 21.516 43.9586 23.2159L45.0371 23.7669C47.4469 24.9981 47.9848 28.3624 46.0907 30.356L45.5358 30.9401C43.6416 32.9338 40.4452 32.3676 39.2754 29.8312L38.7519 28.6961Z" fill="url(#paint10_linear_1_38)"/>
<path d="M84.1891 28.6961C85.8042 25.1942 82.3094 21.516 78.9824 23.2159L77.9039 23.7669C75.4941 24.9981 74.9562 28.3624 76.8503 30.356L77.4052 30.9401C79.2994 32.9337 82.4958 32.3675 83.6656 29.8312L84.1891 28.6961Z" fill="url(#paint11_linear_1_38)"/>
<path d="M43.9586 71.0396C40.6315 72.7395 37.1368 69.0613 38.7518 65.5594L39.2753 64.4244C40.4451 61.888 43.6415 61.3218 45.5357 63.3154L46.0906 63.8995C47.9848 65.8931 47.4468 69.2574 45.037 70.4886L43.9586 71.0396Z" fill="url(#paint12_linear_1_38)"/>
<path d="M57.6709 76.7113C58.8775 80.3773 64.0634 80.3773 65.2699 76.7113L65.608 75.6841C66.4596 73.0967 64.5324 70.4336 61.8085 70.4336H61.1323C58.4085 70.4336 56.4813 73.0967 57.3328 75.6841L57.6709 76.7113Z" fill="url(#paint13_linear_1_38)"/>
<path d="M57.6709 17.5443C58.8775 13.8783 64.0634 13.8783 65.2699 17.5443L65.608 18.5715C66.4596 21.1589 64.5324 23.822 61.8085 23.822H61.1323C58.4085 23.822 56.4813 21.1589 57.3328 18.5715L57.6709 17.5443Z" fill="url(#paint14_linear_1_38)"/>
<path d="M90.2388 50.8858C93.7453 49.6074 93.7453 44.6483 90.2388 43.3698L88.9834 42.9121C86.3741 41.9607 83.6132 43.8928 83.6132 46.6701V47.5856C83.6132 50.3629 86.3741 52.2949 88.9834 51.3436L90.2388 50.8858Z" fill="url(#paint15_linear_1_38)"/>
<path d="M32.702 50.8858C29.1956 49.6074 29.1956 44.6483 32.702 43.3698L33.9575 42.9121C36.5668 41.9607 39.3277 43.8928 39.3277 46.6701V47.5855C39.3277 50.3629 36.5668 52.2949 33.9575 51.3436L32.702 50.8858Z" fill="url(#paint16_linear_1_38)"/>
<g filter="url(#filter1_d_1_38)">
<ellipse cx="61.682" cy="47.3504" rx="25.0182" ry="26.3322" fill="url(#paint17_radial_1_38)"/>
</g>
<g opacity="0.5" filter="url(#filter2_d_1_38)">
<path d="M52.8475 20.4812C51.3418 12.4405 44.6323 6.40409 36.5721 6.40409C30.1727 6.40409 24.6147 10.2263 21.8467 15.8199C15.1816 16.5657 10 22.5088 10 29.7105C10 37.425 15.9566 43.6944 23.2861 43.6944H52.0725C58.1841 43.6944 63.1442 38.4737 63.1442 32.0412C63.1442 25.8883 58.6048 20.9007 52.8475 20.4812Z" fill="url(#paint18_linear_1_38)"/>
</g>
<defs>
<filter id="filter0_d_1_38" x="46.8558" y="52.7097" width="73.1442" height="57.2903" filterUnits="userSpaceOnUse" color-interpolation-filters="sRGB">
<feFlood flood-opacity="0" result="BackgroundImageFix"/>
<feColorMatrix in="SourceAlpha" type="matrix" values="0 0 0 0 0 0 0 0 0 0 0 0 0 0 0 0 0 0 127 0" result="hardAlpha"/>
<feOffset dy="4"/>
<feGaussianBlur stdDeviation="5"/>
<feComposite in2="hardAlpha" operator="out"/>
<feColorMatrix type="matrix" values="0 0 0 0 0 0 0 0 0 0 0 0 0 0 0 0 0 0 0.25 0"/>
<feBlend mode="normal" in2="BackgroundImageFix" result="effect1_dropShadow_1_38"/>
<feBlend mode="normal" in="SourceGraphic" in2="effect1_dropShadow_1_38" result="shape"/>
</filter>
<filter id="filter1_d_1_38" x="16.6638" y="5.01821" width="90.0364" height="92.6644" filterUnits="userSpaceOnUse" color-interpolation-filters="sRGB">
<feFlood flood-opacity="0" result="BackgroundImageFix"/>
<feColorMatrix in="SourceAlpha" type="matrix" values="0 0 0 0 0 0 0 0 0 0 0 0 0 0 0 0 0 0 127 0" result="hardAlpha"/>
<feOffset dy="4"/>
<feGaussianBlur stdDeviation="10"/>
<feComposite in2="hardAlpha" operator="out"/>
<feColorMatrix type="matrix" values="0 0 0 0 0 0 0 0 0 0 0 0 0 0 0 0 0 0 0.25 0"/>
<feBlend mode="normal" in2="BackgroundImageFix" result="effect1_dropShadow_1_38"/>
<feBlend mode="normal" in="SourceGraphic" in2="effect1_dropShadow_1_38" result="shape"/>
</filter>
<filter id="filter2_d_1_38" x="0" y="0.404091" width="73.1442" height="57.2903" filterUnits="userSpaceOnUse" color-interpolation-filters="sRGB">
<feFlood flood-opacity="0" result="BackgroundImageFix"/>
<feColorMatrix in="SourceAlpha" type="matrix" values="0 0 0 0 0 0 0 0 0 0 0 0 0 0 0 0 0 0 127 0" result="hardAlpha"/>
<feOffset dy="4"/>
<feGaussianBlur stdDeviation="5"/>
<feComposite in2="hardAlpha" operator="out"/>
<feColorMatrix type="matrix" values="0 0 0 0 0 0 0 0 0 0 0 0 0 0 0 0 0 0 0.25 0"/>
<feBlend mode="normal" in2="BackgroundImageFix" result="effect1_dropShadow_1_38"/>
<feBlend mode="normal" in="SourceGraphic" in2="effect1_dropShadow_1_38" result="shape"/>
</filter>
<linearGradient id="paint0_linear_1_38" x1="83.4279" y1="58.7097" x2="83.4279" y2="96" gradientUnits="userSpaceOnUse">
<stop stop-color="white"/>
<stop offset="1" stop-color="#F5F5F5"/>
</linearGradient>
<linearGradient id="paint1_linear_1_38" x1="46.1989" y1="84.9844" x2="55.8153" y2="63.466" gradientUnits="userSpaceOnUse">
<stop offset="0.28125" stop-color="#FFE55A"/>
<stop offset="0.71875" stop-color="#FFB876"/>
</linearGradient>
<linearGradient id="paint2_linear_1_38" x1="76.7421" y1="9.271" x2="67.1256" y2="30.7895" gradientUnits="userSpaceOnUse">
<stop offset="0.28125" stop-color="#FFE55A"/>
<stop offset="0.71875" stop-color="#FFB876"/>
</linearGradient>
<linearGradient id="paint3_linear_1_38" x1="97.4382" y1="63.2014" x2="76.3433" y2="54.6917" gradientUnits="userSpaceOnUse">
<stop offset="0.28125" stop-color="#FFE55A"/>
<stop offset="0.71875" stop-color="#FFB876"/>
</linearGradient>
<linearGradient id="paint4_linear_1_38" x1="25.5029" y1="31.054" x2="46.5977" y2="39.5638" gradientUnits="userSpaceOnUse">
<stop offset="0.28125" stop-color="#FFE55A"/>
<stop offset="0.71875" stop-color="#FFB876"/>
</linearGradient>
<linearGradient id="paint5_linear_1_38" x1="76.7269" y1="84.9913" x2="67.1197" y2="63.4683" gradientUnits="userSpaceOnUse">
<stop offset="0.28125" stop-color="#FFE55A"/>
<stop offset="0.71875" stop-color="#FFB876"/>
</linearGradient>
<linearGradient id="paint6_linear_1_38" x1="46.214" y1="9.26425" x2="55.8212" y2="30.7873" gradientUnits="userSpaceOnUse">
<stop offset="0.28125" stop-color="#FFE55A"/>
<stop offset="0.71875" stop-color="#FFB876"/>
</linearGradient>
<linearGradient id="paint7_linear_1_38" x1="96.8208" y1="29.6023" x2="76.0288" y2="38.9072" gradientUnits="userSpaceOnUse">
<stop offset="0.28125" stop-color="#FFE55A"/>
<stop offset="0.71875" stop-color="#FFB876"/>
</linearGradient>
<linearGradient id="paint8_linear_1_38" x1="26.1202" y1="64.6532" x2="46.9122" y2="55.3483" gradientUnits="userSpaceOnUse">
<stop offset="0.28125" stop-color="#FFE55A"/>
<stop offset="0.71875" stop-color="#FFB876"/>
</linearGradient>
<linearGradient id="paint9_linear_1_38" x1="89.101" y1="76.2095" x2="72.3202" y2="60.266" gradientUnits="userSpaceOnUse">
<stop offset="0.28125" stop-color="#FFE55A"/>
<stop offset="0.71875" stop-color="#FFB876"/>
</linearGradient>
<linearGradient id="paint10_linear_1_38" x1="33.84" y1="18.046" x2="50.6208" y2="33.9894" gradientUnits="userSpaceOnUse">
<stop offset="0.28125" stop-color="#FFE55A"/>
<stop offset="0.71875" stop-color="#FFB876"/>
</linearGradient>
<linearGradient id="paint11_linear_1_38" x1="89.101" y1="18.046" x2="72.3202" y2="33.9894" gradientUnits="userSpaceOnUse">
<stop offset="0.28125" stop-color="#FFE55A"/>
<stop offset="0.71875" stop-color="#FFB876"/>
</linearGradient>
<linearGradient id="paint12_linear_1_38" x1="33.8399" y1="76.2095" x2="50.6207" y2="60.2661" gradientUnits="userSpaceOnUse">
<stop offset="0.28125" stop-color="#FFE55A"/>
<stop offset="0.71875" stop-color="#FFB876"/>
</linearGradient>
<linearGradient id="paint13_linear_1_38" x1="61.4704" y1="88.2556" x2="61.4704" y2="64.4929" gradientUnits="userSpaceOnUse">
<stop offset="0.28125" stop-color="#FFE55A"/>
<stop offset="0.71875" stop-color="#FFB876"/>
</linearGradient>
<linearGradient id="paint14_linear_1_38" x1="61.4704" y1="6" x2="61.4704" y2="29.7627" gradientUnits="userSpaceOnUse">
<stop offset="0.28125" stop-color="#FFE55A"/>
<stop offset="0.71875" stop-color="#FFB876"/>
</linearGradient>
<linearGradient id="paint15_linear_1_38" x1="100.546" y1="47.1278" x2="77.969" y2="47.1278" gradientUnits="userSpaceOnUse">
<stop offset="0.28125" stop-color="#FFE55A"/>
<stop offset="0.71875" stop-color="#FFB876"/>
</linearGradient>
<linearGradient id="paint16_linear_1_38" x1="22.3949" y1="47.1278" x2="44.9719" y2="47.1278" gradientUnits="userSpaceOnUse">
<stop offset="0.28125" stop-color="#FFE55A"/>
<stop offset="0.71875" stop-color="#FFB876"/>
</linearGradient>
<radialGradient id="paint17_radial_1_38" cx="0" cy="0" r="1" gradientUnits="userSpaceOnUse" gradientTransform="translate(61.682 47.3504) rotate(90) scale(26.3322 61.6164)">
<stop offset="0.0001" stop-color="#FFB876"/>
<stop offset="1" stop-color="#FFE55A"/>
</radialGradient>
<linearGradient id="paint18_linear_1_38" x1="36.5721" y1="6.40409" x2="36.5721" y2="43.6944" gradientUnits="userSpaceOnUse">
<stop stop-color="white"/>
<stop offset="1" stop-color="#F5F5F5"/>
</linearGradient>
</defs>
</svg>
