<svg width="282" height="282" viewBox="0 0 282 282" fill="none" xmlns="http://www.w3.org/2000/svg">
<circle cx="141" cy="141" r="136" stroke="#F8FAFF" stroke-width="10"/>
<path d="M194.51 15.9691C212.059 23.4798 227.831 34.6009 240.799 48.6089C253.767 62.6169 263.641 79.198 269.779 97.2737C275.916 115.349 278.18 134.515 276.422 153.523C274.665 172.531 268.925 190.956 259.577 207.6C250.229 224.243 237.482 238.733 222.165 250.125C206.848 261.518 189.304 269.558 170.675 273.723C152.045 277.888 132.748 278.085 114.038 274.301C95.3273 270.516 77.6233 262.835 62.0772 251.757" stroke="#3CCF8D" stroke-width="10" stroke-linecap="square"/>
<path d="M65.035 164.78C61.3083 164.78 57.9717 163.87 55.025 162.05C52.0783 160.187 49.76 157.5 48.07 153.99C46.38 150.48 45.535 146.233 45.535 141.25C45.535 136.267 46.38 132.02 48.07 128.51C49.76 125 52.0783 122.335 55.025 120.515C57.9717 118.652 61.3083 117.72 65.035 117.72C68.805 117.72 72.1417 118.652 75.045 120.515C77.9917 122.335 80.31 125 82 128.51C83.69 132.02 84.535 136.267 84.535 141.25C84.535 146.233 83.69 150.48 82 153.99C80.31 157.5 77.9917 160.187 75.045 162.05C72.1417 163.87 68.805 164.78 65.035 164.78ZM65.035 155.875C66.8117 155.875 68.35 155.377 69.65 154.38C70.9933 153.383 72.0333 151.802 72.77 149.635C73.55 147.468 73.94 144.673 73.94 141.25C73.94 137.827 73.55 135.032 72.77 132.865C72.0333 130.698 70.9933 129.117 69.65 128.12C68.35 127.123 66.8117 126.625 65.035 126.625C63.3017 126.625 61.7633 127.123 60.42 128.12C59.12 129.117 58.08 130.698 57.3 132.865C56.5633 135.032 56.195 137.827 56.195 141.25C56.195 144.673 56.5633 147.468 57.3 149.635C58.08 151.802 59.12 153.383 60.42 154.38C61.7633 155.377 63.3017 155.875 65.035 155.875ZM109.151 164.78C105.425 164.78 102.088 163.87 99.1412 162.05C96.1945 160.187 93.8762 157.5 92.1862 153.99C90.4962 150.48 89.6512 146.233 89.6512 141.25C89.6512 136.267 90.4962 132.02 92.1862 128.51C93.8762 125 96.1945 122.335 99.1412 120.515C102.088 118.652 105.425 117.72 109.151 117.72C112.921 117.72 116.258 118.652 119.161 120.515C122.108 122.335 124.426 125 126.116 128.51C127.806 132.02 128.651 136.267 128.651 141.25C128.651 146.233 127.806 150.48 126.116 153.99C124.426 157.5 122.108 160.187 119.161 162.05C116.258 163.87 112.921 164.78 109.151 164.78ZM109.151 155.875C110.928 155.875 112.466 155.377 113.766 154.38C115.11 153.383 116.15 151.802 116.886 149.635C117.666 147.468 118.056 144.673 118.056 141.25C118.056 137.827 117.666 135.032 116.886 132.865C116.15 130.698 115.11 129.117 113.766 128.12C112.466 127.123 110.928 126.625 109.151 126.625C107.418 126.625 105.88 127.123 104.536 128.12C103.236 129.117 102.196 130.698 101.416 132.865C100.68 135.032 100.311 137.827 100.311 141.25C100.311 144.673 100.68 147.468 101.416 149.635C102.196 151.802 103.236 153.383 104.536 154.38C105.88 155.377 107.418 155.875 109.151 155.875ZM139.747 141.185C138.014 141.185 136.519 140.6 135.262 139.43C134.049 138.217 133.442 136.678 133.442 134.815C133.442 132.952 134.049 131.457 135.262 130.33C136.519 129.16 138.014 128.575 139.747 128.575C141.524 128.575 143.019 129.16 144.232 130.33C145.446 131.457 146.052 132.952 146.052 134.815C146.052 136.678 145.446 138.217 144.232 139.43C143.019 140.6 141.524 141.185 139.747 141.185ZM139.747 164.52C138.014 164.52 136.519 163.935 135.262 162.765C134.049 161.552 133.442 160.013 133.442 158.15C133.442 156.287 134.049 154.792 135.262 153.665C136.519 152.495 138.014 151.91 139.747 151.91C141.524 151.91 143.019 152.495 144.232 153.665C145.446 154.792 146.052 156.287 146.052 158.15C146.052 160.013 145.446 161.552 144.232 162.765C143.019 163.935 141.524 164.52 139.747 164.52ZM170.279 164.78C166.552 164.78 163.216 163.87 160.269 162.05C157.322 160.187 155.004 157.5 153.314 153.99C151.624 150.48 150.779 146.233 150.779 141.25C150.779 136.267 151.624 132.02 153.314 128.51C155.004 125 157.322 122.335 160.269 120.515C163.216 118.652 166.552 117.72 170.279 117.72C174.049 117.72 177.386 118.652 180.289 120.515C183.236 122.335 185.554 125 187.244 128.51C188.934 132.02 189.779 136.267 189.779 141.25C189.779 146.233 188.934 150.48 187.244 153.99C185.554 157.5 183.236 160.187 180.289 162.05C177.386 163.87 174.049 164.78 170.279 164.78ZM170.279 155.875C172.056 155.875 173.594 155.377 174.894 154.38C176.237 153.383 177.277 151.802 178.014 149.635C178.794 147.468 179.184 144.673 179.184 141.25C179.184 137.827 178.794 135.032 178.014 132.865C177.277 130.698 176.237 129.117 174.894 128.12C173.594 127.123 172.056 126.625 170.279 126.625C168.546 126.625 167.007 127.123 165.664 128.12C164.364 129.117 163.324 130.698 162.544 132.865C161.807 135.032 161.439 137.827 161.439 141.25C161.439 144.673 161.807 147.468 162.544 149.635C163.324 151.802 164.364 153.383 165.664 154.38C167.007 155.377 168.546 155.875 170.279 155.875ZM210.885 117.72C215.089 117.72 218.707 118.587 221.74 120.32C224.774 122.053 227.114 124.588 228.76 127.925C230.407 131.218 231.23 135.335 231.23 140.275C231.23 145.518 230.234 149.96 228.24 153.6C226.29 157.24 223.582 160.013 220.115 161.92C216.649 163.827 212.619 164.78 208.025 164.78C205.642 164.78 203.345 164.52 201.135 164C198.925 163.48 197.019 162.7 195.415 161.66L199.315 153.925C200.572 154.792 201.915 155.398 203.345 155.745C204.775 156.048 206.27 156.2 207.83 156.2C211.73 156.2 214.829 155.008 217.125 152.625C219.465 150.242 220.635 146.71 220.635 142.03C220.635 141.25 220.614 140.383 220.57 139.43C220.527 138.477 220.419 137.523 220.245 136.57L223.105 139.3C222.369 140.99 221.329 142.42 219.985 143.59C218.642 144.717 217.082 145.583 215.305 146.19C213.529 146.753 211.535 147.035 209.325 147.035C206.422 147.035 203.779 146.45 201.395 145.28C199.055 144.11 197.17 142.463 195.74 140.34C194.354 138.217 193.66 135.725 193.66 132.865C193.66 129.745 194.419 127.058 195.935 124.805C197.495 122.552 199.575 120.818 202.175 119.605C204.819 118.348 207.722 117.72 210.885 117.72ZM211.535 125.585C210.019 125.585 208.697 125.867 207.57 126.43C206.444 126.95 205.555 127.73 204.905 128.77C204.255 129.767 203.93 130.958 203.93 132.345C203.93 134.425 204.624 136.093 206.01 137.35C207.44 138.563 209.325 139.17 211.665 139.17C213.182 139.17 214.525 138.888 215.695 138.325C216.909 137.718 217.84 136.895 218.49 135.855C219.14 134.815 219.465 133.645 219.465 132.345C219.465 131.045 219.14 129.897 218.49 128.9C217.884 127.86 216.995 127.058 215.825 126.495C214.655 125.888 213.225 125.585 211.535 125.585Z" fill="#F5F5F5"/>
<path d="M113.93 82.59V79.32L123.83 66H128.93L119.24 79.32L116.87 78.63H133.4V82.59H113.93ZM125.24 87V82.59L125.39 78.63V74.7H129.98V87H125.24ZM133.397 90L143.297 61.74H147.467L137.567 90H133.397ZM154.445 87.36C152.985 87.36 151.535 87.17 150.095 86.79C148.675 86.39 147.455 85.83 146.435 85.11L148.355 81.39C149.155 81.97 150.075 82.43 151.115 82.77C152.175 83.11 153.245 83.28 154.325 83.28C155.545 83.28 156.505 83.04 157.205 82.56C157.905 82.08 158.255 81.41 158.255 80.55C158.255 80.01 158.115 79.53 157.835 79.11C157.555 78.69 157.055 78.37 156.335 78.15C155.635 77.93 154.645 77.82 153.365 77.82H147.995L149.075 66H161.885V69.9H150.815L153.335 67.68L152.585 76.11L150.065 73.89H154.505C156.585 73.89 158.255 74.18 159.515 74.76C160.795 75.32 161.725 76.09 162.305 77.07C162.885 78.05 163.175 79.16 163.175 80.4C163.175 81.64 162.865 82.79 162.245 83.85C161.625 84.89 160.665 85.74 159.365 86.4C158.085 87.04 156.445 87.36 154.445 87.36Z" fill="#D1F3E2"/>
<path d="M129.5 233.417H137.167V206.583H129.5V233.417ZM144.833 206.583V233.417H152.5V206.583H144.833Z" fill="#D1F3E2"/>
</svg>
